<svg xmlns="http://www.w3.org/2000/svg" viewBox="0 0 175.48 242.2"><defs><style>.cls-1{fill:#2e3192;}.cls-2,.cls-3,.cls-4,.cls-5{fill:none;stroke:#4d4d4d;stroke-miterlimit:10;}.cls-2{stroke-width:0.55px;}.cls-3{stroke-width:0.54px;}.cls-4{stroke-width:0.27px;}.cls-5{stroke-width:0.34px;}</style></defs><title>Asset 1</title><g id="Layer_2" data-name="Layer 2"><g id="Layer_1-2" data-name="Layer 1"><path class="cls-1" d="M36.34,138.75V117.29h4v18.29h9l-.12,3.17Z"/><path class="cls-1" d="M61.62,139.05A10.1,10.1,0,0,1,54,136.12q-2.8-2.94-2.81-8.11c0-3.47.94-6.17,2.81-8.12A10.17,10.17,0,0,1,61.64,117a10.06,10.06,0,0,1,7.64,2.92q2.81,2.92,2.8,8.12t-2.81,8.09A10.1,10.1,0,0,1,61.62,139.05Zm-4.7-5.27a5.63,5.63,0,0,0,4.72,2,5.63,5.63,0,0,0,4.71-2,9.2,9.2,0,0,0,1.58-5.74,9.38,9.38,0,0,0-1.58-5.81,5.56,5.56,0,0,0-4.7-2.07,5.6,5.6,0,0,0-4.72,2.07,9.31,9.31,0,0,0-1.61,5.81A9.06,9.06,0,0,0,56.92,133.78Z"/><path class="cls-1" d="M80.56,138.75l-7.81-21.46h4.09l4.54,13.25c.18.46.58,1.8,1.22,4,0-.16.22-.8.54-1.93s.53-1.81.63-2.07S84.63,128,86,124s2.11-6.3,2.24-6.67h4l-7.7,21.46Z"/><path class="cls-1" d="M94.35,138.75V117.29h13l-.16,3.14H98.32V126h8.43v3.15H98.32v6.46h9.2l-.14,3.17Z"/><path d="M111.93,129.1h1.55l3,8,2.71-8h1.56q-3.9,10.74-4,11.08a5.41,5.41,0,0,1-1.47,2.23,3.45,3.45,0,0,1-2.26.7,5.6,5.6,0,0,1-.89-.07L112,141.8l.74,0a2.65,2.65,0,0,0,1.51-.36,3.1,3.1,0,0,0,.92-1.37c.24-.62.41-1.09.53-1.43Z"/><path d="M130.45,133.92a5.35,5.35,0,0,1-1.2,3.63A4.13,4.13,0,0,1,126,139a4,4,0,0,1-3.23-1.41,6.08,6.08,0,0,1,0-7.25A4.13,4.13,0,0,1,126,128.9a4.05,4.05,0,0,1,3.24,1.39A5.46,5.46,0,0,1,130.45,133.92ZM123,134a4.47,4.47,0,0,0,.76,2.74,2.57,2.57,0,0,0,2.22,1,2.51,2.51,0,0,0,2.17-1,5.61,5.61,0,0,0,0-5.55,2.53,2.53,0,0,0-2.21-1,2.57,2.57,0,0,0-2.2,1A4.65,4.65,0,0,0,123,134Z"/><path d="M132.19,135.53V129.1h1.47v6.45a2.82,2.82,0,0,0,.18,1.07,1.57,1.57,0,0,0,.52.68,2.25,2.25,0,0,0,.77.35,4.1,4.1,0,0,0,1,.1,2.79,2.79,0,0,0,1.78-.5,2,2,0,0,0,.63-1.7V129.1H140v6.43a4,4,0,0,1-.21,1.33,2.85,2.85,0,0,1-.57,1,2.8,2.8,0,0,1-.86.64,4.23,4.23,0,0,1-1.05.37,5.82,5.82,0,0,1-1.2.11,5.76,5.76,0,0,1-1.2-.11,4.52,4.52,0,0,1-1.07-.37,3.53,3.53,0,0,1-.87-.65,2.85,2.85,0,0,1-.57-1A4,4,0,0,1,132.19,135.53Z"/><path d="M146.51,129a3.94,3.94,0,0,1,.72,0l0,1.35a5,5,0,0,0-.7-.07,2.57,2.57,0,0,0-2,.86,3,3,0,0,0-.77,2.12v5.42h-1.47c0-5.92,0-9.14,0-9.65h1.22l.14,1.74a4,4,0,0,1,1.28-1.32A2.9,2.9,0,0,1,146.51,129Z"/><path d="M59.1,160.34H57.37l-6.75-10.23-.43-.6c0,1.23.07,2.33.07,3.29v7.54H48.83v-13h1.7l6.77,10.23.44.6q-.06-2.81-.06-3.24v-7.59H59.1Z"/><path d="M62.16,160.34v-13h7.45l-.06,1.34H63.68v4.25h5.58v1.33H63.68V159h6.06l-.07,1.34Z"/><path d="M73.79,160.34H72.27v-13h1.52Z"/><path d="M82.62,160.54A6.87,6.87,0,0,1,80,160a5.07,5.07,0,0,1-2-1.39,6.2,6.2,0,0,1-1.18-2.11,8.51,8.51,0,0,1-.41-2.68,7.74,7.74,0,0,1,.75-3.48A5.6,5.6,0,0,1,79.38,148a6.78,6.78,0,0,1,3.5-.87,7.51,7.51,0,0,1,3.94,1l-.58,1.25a6.71,6.71,0,0,0-3.34-.94,5.27,5.27,0,0,0-2.12.41A3.85,3.85,0,0,0,79.25,150a5,5,0,0,0-.91,1.7,7,7,0,0,0-.31,2.15,5.8,5.8,0,0,0,1.23,3.91,4.55,4.55,0,0,0,3.65,1.44,7.56,7.56,0,0,0,2.78-.55V155H82.63l.05-1.33h4.44v5.94a9.46,9.46,0,0,1-2.14.75A11.17,11.17,0,0,1,82.62,160.54Z"/><path d="M99.81,160.34H98.29v-6.08h-7v6.08H89.79v-13h1.52v5.58h7v-5.58h1.52Z"/><path d="M102.87,147.35h3.72a7.13,7.13,0,0,1,3.72.76,2.68,2.68,0,0,1,1.21,2.44,3.87,3.87,0,0,1,0,.48,5.2,5.2,0,0,1-.16.62,2.54,2.54,0,0,1-1,1.32,3.52,3.52,0,0,1-1,.49,3.19,3.19,0,0,1,2,1.11,3.26,3.26,0,0,1,.68,2.07,3.39,3.39,0,0,1-1.16,2.74,5.27,5.27,0,0,1-3.44,1h-4.53Zm1.52,5.59h2.78a3.62,3.62,0,0,0,2.06-.48,1.91,1.91,0,0,0,.69-1.69,1.74,1.74,0,0,0-.83-1.68,5.47,5.47,0,0,0-2.58-.46h-2.12Zm0,1.22v4.94h2.71a4.21,4.21,0,0,0,2.48-.61,2.23,2.23,0,0,0,.83-1.91,2,2,0,0,0-.89-1.88,5.58,5.58,0,0,0-2.79-.54Z"/><path d="M126,153.85a8.67,8.67,0,0,1-.41,2.72,6.11,6.11,0,0,1-1.18,2.11,5.06,5.06,0,0,1-1.94,1.37,6.67,6.67,0,0,1-2.63.49,6.46,6.46,0,0,1-3.37-.84,5.3,5.3,0,0,1-2.1-2.34,8.34,8.34,0,0,1-.7-3.52,7.09,7.09,0,0,1,1.63-4.92,6.6,6.6,0,0,1,9.07,0A7.12,7.12,0,0,1,126,153.85Zm-10.71,0a6.13,6.13,0,0,0,1.15,3.93,4.76,4.76,0,0,0,6.79,0,7.42,7.42,0,0,0,0-7.92,4.05,4.05,0,0,0-3.37-1.42,4.13,4.13,0,0,0-3.39,1.42A6.07,6.07,0,0,0,115.24,153.85Z"/><path d="M138.11,160.34h-1.76l-1.79-4.07q-.74-1.65-.93-2c-.43,0-.94,0-1.52,0l-2.33-.07v6.08h-1.56V147.2h4.16c.48,0,.91,0,1.27,0s.74.07,1.11.13a5.22,5.22,0,0,1,1,.25,3.37,3.37,0,0,1,.76.43,2.07,2.07,0,0,1,.56.62,2.85,2.85,0,0,1,.34.85,4.78,4.78,0,0,1,.13,1.12,3.51,3.51,0,0,1-.65,2.12A3.33,3.33,0,0,1,135,154s.06.12.17.32.26.44.42.73a7.2,7.2,0,0,1,.37.73Zm-8.33-11.78V153l1.49,0,1.74,0a3.71,3.71,0,0,0,2.34-.56,2.19,2.19,0,0,0,.66-1.77,1.92,1.92,0,0,0-.63-1.58,3.35,3.35,0,0,0-2.12-.52Z"/><path class="cls-1" d="M81.78,181.94l4.74-12.88h2.59l4.67,12.88H91.33l-1.27-3.63H85.55l-1.28,3.63Zm4.37-5.41h3.3c-1-3.38-1.6-5.13-1.63-5.24Z"/><path class="cls-1" d="M98.75,182.12a8.26,8.26,0,0,1-4.18-1.07l.58-1.89a9.58,9.58,0,0,0,1.8.74,7.11,7.11,0,0,0,1.9.28,2.64,2.64,0,0,0,1.71-.49,1.72,1.72,0,0,0,.58-1.4q0-1.22-1.62-1.68l-.64-.19-1-.3-.66-.22a3.41,3.41,0,0,1-2.59-3.41,3.18,3.18,0,0,1,1.24-2.7,5.32,5.32,0,0,1,3.3-.95,8,8,0,0,1,4,1l-.72,1.74a7.83,7.83,0,0,0-3.2-.78,2.83,2.83,0,0,0-1.61.38,1.46,1.46,0,0,0-.57,1.24,1.35,1.35,0,0,0,1.06,1.4l1,.34,1.07.34a5.7,5.7,0,0,1,2.53,1.45,3.52,3.52,0,0,1,.76,2.4,3.35,3.35,0,0,1-1.3,2.82A5.67,5.67,0,0,1,98.75,182.12Z"/><path d="M60.74,193.9h1.55l3,8,2.71-8H69.6q-3.91,10.74-4,11.08a5.41,5.41,0,0,1-1.47,2.23,3.45,3.45,0,0,1-2.26.7,5.6,5.6,0,0,1-.89-.07l-.09-1.25c.33,0,.58,0,.74,0a2.65,2.65,0,0,0,1.51-.36A3.1,3.1,0,0,0,64,204.9c.24-.62.41-1.09.53-1.43Z"/><path d="M79.26,198.72a5.35,5.35,0,0,1-1.2,3.63,4.13,4.13,0,0,1-3.3,1.4,4,4,0,0,1-3.23-1.41,6.08,6.08,0,0,1,0-7.25,4.12,4.12,0,0,1,3.3-1.39,4.06,4.06,0,0,1,3.25,1.39A5.46,5.46,0,0,1,79.26,198.72Zm-7.41,0a4.49,4.49,0,0,0,.76,2.74,2.57,2.57,0,0,0,2.22,1,2.51,2.51,0,0,0,2.17-1A5.61,5.61,0,0,0,77,196a2.53,2.53,0,0,0-2.21-1,2.57,2.57,0,0,0-2.2,1A4.65,4.65,0,0,0,71.85,198.75Z"/><path d="M81,200.33V193.9h1.47v6.45a2.82,2.82,0,0,0,.18,1.07,1.57,1.57,0,0,0,.52.68,2.25,2.25,0,0,0,.77.35,4.1,4.1,0,0,0,1,.1,2.85,2.85,0,0,0,1.78-.5,2,2,0,0,0,.63-1.7V193.9h1.48v6.43a4,4,0,0,1-.21,1.33,2.71,2.71,0,0,1-.57,1,2.79,2.79,0,0,1-.86.65,4.23,4.23,0,0,1-1,.37,5.82,5.82,0,0,1-1.2.11,5.76,5.76,0,0,1-1.2-.11,4.52,4.52,0,0,1-1.07-.37,3.53,3.53,0,0,1-.87-.65,2.85,2.85,0,0,1-.57-1A4,4,0,0,1,81,200.33Z"/><path d="M95.32,193.82a3.94,3.94,0,0,1,.72.05L96,195.22a3.84,3.84,0,0,0-.7-.07,2.57,2.57,0,0,0-2,.86,3.07,3.07,0,0,0-.77,2.12v5.42H91.05q0-8.88,0-9.65h1.22l.14,1.73a4.11,4.11,0,0,1,1.28-1.31A2.9,2.9,0,0,1,95.32,193.82Z"/><path d="M100.43,203.75a7.45,7.45,0,0,1-1.82-.21,4.73,4.73,0,0,1-1.35-.55l.19-1.24a6.12,6.12,0,0,0,2.88.78c1.43,0,2.17-.5,2.21-1.51a1.22,1.22,0,0,0-.46-1,6.49,6.49,0,0,0-1.79-.82l-.73-.26a4,4,0,0,1-1.81-1.05,2.42,2.42,0,0,1,.36-3.43,3.81,3.81,0,0,1,2.49-.75,6.92,6.92,0,0,1,3,.63l-.43,1.13a6.58,6.58,0,0,0-2.55-.56,2.51,2.51,0,0,0-1.44.36,1.19,1.19,0,0,0-.52,1,1,1,0,0,0,.37.86,5.93,5.93,0,0,0,1.52.68l.72.25a4.81,4.81,0,0,1,2.07,1.12,2.46,2.46,0,0,1,.61,1.74,2.54,2.54,0,0,1-1,2.07A4,4,0,0,1,100.43,203.75Z"/><path d="M110,203.75a4.25,4.25,0,0,1-3.31-1.34,5.22,5.22,0,0,1-1.21-3.65,5.47,5.47,0,0,1,1.17-3.64,3.9,3.9,0,0,1,3.08-1.42,3.55,3.55,0,0,1,2.84,1.23,4.85,4.85,0,0,1,1,3.27v.39c0,.19,0,.32,0,.4H107a3.79,3.79,0,0,0,.85,2.56,2.8,2.8,0,0,0,2.21.92,6.56,6.56,0,0,0,3.07-.81l.23,1.19A6.29,6.29,0,0,1,110,203.75Zm1.48-8.07a2.2,2.2,0,0,0-1.77-.77,2.37,2.37,0,0,0-1.84.8,3.65,3.65,0,0,0-.83,2.17h5.09A3.36,3.36,0,0,0,111.49,195.68Z"/><path d="M118.26,203.72a2.35,2.35,0,0,1-2-.76,4.38,4.38,0,0,1-.58-2.62V190.16l1.46-.09v9.69c0,.4,0,.71,0,1s0,.48.06.71a2.61,2.61,0,0,0,.14.53,1.26,1.26,0,0,0,.26.32.88.88,0,0,0,.4.19,3.13,3.13,0,0,0,.58,0c.18,0,.55,0,1.1-.11l.08,1.17A9.54,9.54,0,0,1,118.26,203.72Z"/><path d="M124.33,191.1a1.39,1.39,0,0,0-1.25.53,3.64,3.64,0,0,0-.34,1.83v.44h2.32V195h-2.32v8.56h-1.46V195h-1.57l.12-1,1.45-.13v-.43a4.3,4.3,0,0,1,.7-2.7,2.66,2.66,0,0,1,2.2-.84,9.41,9.41,0,0,1,1.44.13l-.1,1.15A9.94,9.94,0,0,0,124.33,191.1Z"/><path class="cls-1" d="M49.32,241.94V231.77h1.23l3.77,8.6,3.66-8.6h1.18v10.17H58.3V235.1l0-2.31-.25.82-3.34,7.75h-1l-3.38-7.77-.27-.82,0,2.37v6.8Z"/><path class="cls-1" d="M63.42,242.11a2.58,2.58,0,0,1-1.7-.53,1.91,1.91,0,0,1-.64-1.53,2,2,0,0,1,.26-1,1.89,1.89,0,0,1,.73-.7,4.35,4.35,0,0,1,1.1-.43,9,9,0,0,1,1.44-.21c.58,0,1-.06,1.3-.09v-.83a1.91,1.91,0,0,0-.39-1.3,1.63,1.63,0,0,0-1.26-.43,4.54,4.54,0,0,0-2.23.57c0-.05-.06-.15-.12-.3s-.11-.27-.14-.35a3.86,3.86,0,0,1,1.11-.46,5.2,5.2,0,0,1,1.34-.18,2.71,2.71,0,0,1,1.93.57,2.85,2.85,0,0,1,.59,2.05v5h-.67c0-.1,0-.31-.09-.62s-.07-.47-.07-.48A2.85,2.85,0,0,1,63.42,242.11Zm0-.68a2.54,2.54,0,0,0,1.56-.51,2.46,2.46,0,0,0,.89-1.44v-1.27l-1,.08a5.93,5.93,0,0,0-2.32.54,1.36,1.36,0,0,0-.65,1.23,1.25,1.25,0,0,0,.42,1A1.64,1.64,0,0,0,63.44,241.43Z"/><path class="cls-1" d="M70.89,242.1a1.89,1.89,0,0,1-1.38-.43,1.83,1.83,0,0,1-.44-1.39v-5.21H68l.06-.51,1-.09.23-1.72.59,0v1.74h2.19v.62H69.9v5a1.6,1.6,0,0,0,.26,1.06,1.26,1.26,0,0,0,.92.27,4.26,4.26,0,0,0,1-.16l0,.66A7,7,0,0,1,70.89,242.1Z"/><path class="cls-1" d="M75.51,242.1a1.89,1.89,0,0,1-1.38-.43,1.87,1.87,0,0,1-.44-1.39v-5.21H72.63l.06-.51,1-.09.23-1.72.59,0v1.74h2.19v.62H74.52v5a1.6,1.6,0,0,0,.26,1.06,1.26,1.26,0,0,0,.92.27,4.26,4.26,0,0,0,1-.16l0,.66A7,7,0,0,1,75.51,242.1Z"/><path class="cls-1" d="M78,241.94V231.55l.84-.08v3.84a.32.32,0,0,1,0,.07,1.79,1.79,0,0,1,0,.21,3,3,0,0,1,2.63-1.27c1.63,0,2.44,1,2.44,2.94v4.68h-.84v-4.51a3.27,3.27,0,0,0-.39-1.83A1.55,1.55,0,0,0,81.3,235a2.54,2.54,0,0,0-1.62.52,2.11,2.11,0,0,0-.8,1.33c0,.18,0,.45,0,.81v4.25Z"/><path class="cls-1" d="M88.91,242.11a3.13,3.13,0,0,1-2.47-1,4.1,4.1,0,0,1-.91-2.82,4.34,4.34,0,0,1,.89-2.81,2.94,2.94,0,0,1,2.31-1.12,2.63,2.63,0,0,1,2.12.94,3.8,3.8,0,0,1,.8,2.53s0,.12,0,.25v.26H86.43a3.59,3.59,0,0,0,.69,2.29,2.22,2.22,0,0,0,1.81.84,4.07,4.07,0,0,0,1.27-.17,6.58,6.58,0,0,0,1.13-.48l.14.63A4.76,4.76,0,0,1,88.91,242.11Zm-2.45-4.49h4.27a3,3,0,0,0-.54-1.92A1.85,1.85,0,0,0,88.7,235a1.9,1.9,0,0,0-1.54.71A3.31,3.31,0,0,0,86.46,237.62Z"/><path class="cls-1" d="M94.58,241.94l-2.09-7.49h.89l1.73,6.69c1.24-4,1.94-6.23,2.08-6.69h1q2,6.68,2.07,6.67l1.65-6.67h.88l-2.06,7.49h-1s-.34-1-1-3.15-1-3.34-1.1-3.71c0,.25-.26.94-.62,2.08s-.71,2.23-1,3.25-.5,1.54-.5,1.53Z"/><path class="cls-1" d="M108,241.94v-9.27a4.67,4.67,0,0,1-.69.39,8.4,8.4,0,0,1-1,.4v-.74a11.11,11.11,0,0,0,1.8-.95h.72v10.17Z"/><path class="cls-1" d="M112.05,241.94l3.82-4.62a3.88,3.88,0,0,1-.87.4,3.19,3.19,0,0,1-1,.15,3.43,3.43,0,0,1-1.55-.36,3.12,3.12,0,0,1-1.17-1.09,3,3,0,0,1-.45-1.63,3.2,3.2,0,0,1,.23-1.23,3,3,0,0,1,.66-1,2.89,2.89,0,0,1,1-.7,3.7,3.7,0,0,1,1.39-.26,3.61,3.61,0,0,1,1.43.27,2.89,2.89,0,0,1,1,.74,3.3,3.3,0,0,1,.6,1.05,3.94,3.94,0,0,1,.2,1.25,4.28,4.28,0,0,1-.3,1.7,14.29,14.29,0,0,1-1.29,2.08l-.67.82-2,2.44Zm2.14-4.81a2.67,2.67,0,0,0,1.08-.2,2,2,0,0,0,.76-.53,2.35,2.35,0,0,0,.44-.75,2.87,2.87,0,0,0,0-1.8,2.3,2.3,0,0,0-.45-.77,2,2,0,0,0-.75-.55,2.69,2.69,0,0,0-2.36.16,2.36,2.36,0,0,0-.87.91,2.58,2.58,0,0,0-.29,1.19,2.25,2.25,0,0,0,.67,1.68A2.43,2.43,0,0,0,114.19,237.13Z"/><path class="cls-1" d="M119.19,235.61v-1.43h1.22v1.43Zm0,6.59v-1.44h1.22v1.44Z"/><path class="cls-1" d="M123.41,241.94v-9.27a4.38,4.38,0,0,1-.7.39,7.57,7.57,0,0,1-.94.4v-.74a12.13,12.13,0,0,0,1.8-.95h.71v10.17Z"/><path class="cls-1" d="M127.44,241.94l3.82-4.62a3.88,3.88,0,0,1-.87.4,3.19,3.19,0,0,1-.95.15,3.43,3.43,0,0,1-1.55-.36,3,3,0,0,1-1.62-2.72,3.2,3.2,0,0,1,.23-1.23,3.07,3.07,0,0,1,.65-1,3,3,0,0,1,1.06-.7,3.7,3.7,0,0,1,1.39-.26,3.56,3.56,0,0,1,1.42.27,2.8,2.8,0,0,1,1,.74,3,3,0,0,1,.6,1.05,3.69,3.69,0,0,1,.21,1.25,4.1,4.1,0,0,1-.31,1.7,14,14,0,0,1-1.28,2.08l-.67.82c-.46.54-1.13,1.36-2,2.44Zm2.13-4.81a2.68,2.68,0,0,0,1.09-.2,2,2,0,0,0,.76-.53,2.16,2.16,0,0,0,.43-.75,2.58,2.58,0,0,0,.15-.88,2.82,2.82,0,0,0-.15-.92,2.48,2.48,0,0,0-.45-.77,2,2,0,0,0-.75-.55,2.69,2.69,0,0,0-2.36.16,2.36,2.36,0,0,0-.87.91,2.46,2.46,0,0,0-.29,1.19,2.25,2.25,0,0,0,.67,1.68A2.41,2.41,0,0,0,129.57,237.13Z"/><rect class="cls-2" x="66.29" y="47.58" width="19.25" height="19.25"/><line class="cls-3" x1="89.6" y1="5.87" x2="143.14" y2="36.98"/><polyline class="cls-3" points="36.42 36.98 39.89 34.97 89.96 5.87"/><polyline class="cls-2" points="144.39 26.4 144.39 0.28 34.39 0.28 34.39 26.4"/><line class="cls-3" x1="89.6" y1="3.7" x2="143.14" y2="34.81"/><line class="cls-3" x1="89.96" y1="3.7" x2="36.42" y2="34.81"/><line class="cls-2" x1="42.36" y1="26.13" x2="34.66" y2="26.13"/><line class="cls-2" x1="144.11" y1="26.13" x2="128.16" y2="26.13"/><line class="cls-2" x1="40.44" y1="35.2" x2="40.44" y2="43.45"/><line class="cls-2" x1="139.44" y1="35.75" x2="139.44" y2="43.45"/><line class="cls-2" x1="40.44" y1="26.4" x2="40.44" y2="31.9"/><line class="cls-2" x1="139.44" y1="26.4" x2="139.44" y2="31.9"/><polyline class="cls-4" points="89.67 6.99 84.43 10.04 84.07 10.25"/><polyline class="cls-4" points="89.89 6.99 95.13 10.04 95.49 10.25"/><line class="cls-2" x1="36.04" y1="34.65" x2="36.04" y2="36.85"/><line class="cls-2" x1="143.29" y1="34.65" x2="143.29" y2="36.85"/><rect class="cls-2" x="86.64" y="47.58" width="14.3" height="19.25"/><rect class="cls-2" x="50.89" y="47.58" width="14.3" height="19.25"/><rect class="cls-2" x="50.34" y="66.83" width="51.15" height="0.55"/><rect class="cls-2" x="82.24" y="22.28" width="14.3" height="14.3"/><rect class="cls-2" x="97.64" y="22.28" width="11" height="14.3"/><rect class="cls-2" x="70.69" y="22.28" width="10.45" height="14.3"/><rect class="cls-2" x="69.59" y="37.13" width="39.6" height="0.55"/><rect class="cls-2" x="39.34" y="43.73" width="101.2" height="3.3"/><rect class="cls-2" x="115.24" y="47.03" width="17.05" height="29.7"/><rect class="cls-2" x="108.64" y="54.18" width="29.7" height="15.4" transform="translate(61.61 185.36) rotate(-90)"/><polyline class="cls-2" points="112.21 77.28 135.04 77.28 135.04 82.22 44.84 82.22 44.84 77.28 106.71 77.28"/><polyline class="cls-2" points="112.21 77.83 135.04 77.83 135.04 77.83 112.21 77.83"/><polyline class="cls-2" points="106.71 77.83 44.29 77.83 44.29 77.28 106.71 77.28"/><line class="cls-2" x1="135.31" y1="80.03" x2="112.21" y2="80.03"/><polyline class="cls-2" points="112.21 80.03 135.04 80.03 135.04 80.58 112.21 80.58"/><rect class="cls-2" x="39.34" y="67.38" width="4.95" height="14.85"/><polyline class="cls-2" points="47.31 20.07 42.09 20.07 42.09 31.35"/><rect class="cls-2" x="44.29" y="16.23" width="1.1" height="6.6" transform="translate(25.31 64.36) rotate(-90)"/><line class="cls-2" x1="47.04" y1="28.6" x2="47.04" y2="20.35"/><line class="cls-2" x1="51.16" y1="26.13" x2="47.31" y2="26.13"/><rect class="cls-2" x="41.54" y="63.53" width="1.1" height="6.6" transform="translate(-24.74 108.91) rotate(-90)"/><rect class="cls-2" x="39.34" y="47.03" width="4.95" height="19.25"/><rect class="cls-2" x="106.99" y="67.38" width="4.95" height="14.85"/><rect class="cls-2" x="108.64" y="63.53" width="1.1" height="6.6" transform="translate(42.36 176.01) rotate(-90)"/><rect class="cls-2" x="106.99" y="47.03" width="4.95" height="19.25"/><rect class="cls-2" x="135.59" y="67.38" width="4.95" height="14.85"/><rect class="cls-2" x="137.24" y="63.53" width="1.1" height="6.6" transform="translate(70.96 204.61) rotate(-90)"/><rect class="cls-2" x="135.59" y="47.03" width="4.95" height="19.25"/><line class="cls-5" y1="82.25" x2="175.48" y2="82.88"/></g></g></svg>