<svg id="Layer_1_HOME" data-name="Layer 1_HOME" xmlns="http://www.w3.org/2000/svg" viewBox="0 0 319.06 150.99"><defs><style>.cls-1,.cls-2,.cls-3,.cls-4,.cls-5{fill:none;stroke:#4d4d4d;stroke-miterlimit:10;}.cls-1{stroke-width:1.48px;}.cls-2{stroke-width:0.99px;}.cls-4{stroke-width:0.49px;}.cls-5{stroke-width:0.62px;}</style></defs><title>illustration</title><path class="cls-1" d="M558.33,948.26" transform="translate(-484.98 -877.85)"/><path class="cls-2" d="M604.84,917" transform="translate(-484.98 -877.85)"/><path class="cls-2" d="M603.84,932.51" transform="translate(-484.98 -877.85)"/><path class="cls-2" d="M625.08,969.33" transform="translate(-484.98 -877.85)"/><rect class="cls-3" x="120.52" y="86.5" width="35" height="35"/><line class="cls-2" x1="162.91" y1="10.68" x2="260.25" y2="67.24"/><polyline class="cls-2" points="66.22 67.24 72.53 63.58 163.56 10.68"/><polyline class="cls-3" points="262.52 48 262.52 0.5 62.52 0.5 62.52 48"/><line class="cls-2" x1="162.91" y1="6.73" x2="260.25" y2="63.29"/><line class="cls-2" x1="163.57" y1="6.73" x2="66.22" y2="63.29"/><line class="cls-3" x1="77.02" y1="47.5" x2="63.02" y2="47.5"/><line class="cls-3" x1="262.02" y1="47.5" x2="233.02" y2="47.5"/><line class="cls-3" x1="73.52" y1="64" x2="73.52" y2="79"/><line class="cls-3" x1="253.52" y1="65" x2="253.52" y2="79"/><line class="cls-3" x1="73.52" y1="48" x2="73.52" y2="58"/><line class="cls-3" x1="253.52" y1="48" x2="253.52" y2="58"/><polyline class="cls-4" points="163.04 12.71 153.51 18.25 152.85 18.64"/><polyline class="cls-4" points="163.43 12.71 172.96 18.25 173.62 18.64"/><line class="cls-3" x1="65.52" y1="63" x2="65.52" y2="67"/><line class="cls-3" x1="260.52" y1="63" x2="260.52" y2="67"/><rect class="cls-3" x="157.52" y="86.5" width="26" height="35"/><rect class="cls-3" x="92.52" y="86.5" width="26" height="35"/><rect class="cls-3" x="91.52" y="121.5" width="93" height="1"/><path class="cls-2" d="M650.13,931.7" transform="translate(-484.98 -877.85)"/><rect class="cls-3" x="149.52" y="40.5" width="26" height="26"/><rect class="cls-3" x="177.52" y="40.5" width="20" height="26"/><rect class="cls-3" x="128.52" y="40.5" width="19" height="26"/><rect class="cls-3" x="126.52" y="67.5" width="72" height="1"/><rect class="cls-3" x="71.52" y="79.5" width="184" height="6"/><rect class="cls-3" x="209.52" y="85.5" width="31" height="54"/><rect class="cls-3" x="682.5" y="976.35" width="54" height="28" transform="translate(-765.83 822) rotate(-90)"/><polyline class="cls-3" points="204.02 140.5 245.52 140.5 245.52 149.5 81.52 149.5 81.52 140.5 194.02 140.5"/><polyline class="cls-3" points="204.02 141.5 245.52 141.5 245.52 141.5 204.02 141.5"/><polyline class="cls-3" points="194.02 141.5 80.52 141.5 80.52 140.5 194.02 140.5"/><path class="cls-2" d="M678,1018.31" transform="translate(-484.98 -877.85)"/><path class="cls-2" d="M689.74,1018.06" transform="translate(-484.98 -877.85)"/><line class="cls-3" x1="246.02" y1="145.5" x2="204.02" y2="145.5"/><polyline class="cls-3" points="204.02 145.5 245.52 145.5 245.52 146.5 204.02 146.5"/><rect class="cls-3" x="71.52" y="122.5" width="9" height="27"/><polyline class="cls-3" points="86.02 36.5 76.52 36.5 76.52 57"/><rect class="cls-3" x="565.5" y="907.35" width="2" height="12" transform="translate(-831.83 602) rotate(-90)"/><line class="cls-3" x1="85.52" y1="52" x2="85.52" y2="37"/><line class="cls-3" x1="93.02" y1="47.5" x2="86.02" y2="47.5"/><rect class="cls-3" x="560.5" y="993.35" width="2" height="12" transform="translate(-922.83 683) rotate(-90)"/><rect class="cls-3" x="71.52" y="85.5" width="9" height="35"/><rect class="cls-3" x="194.52" y="122.5" width="9" height="27"/><rect class="cls-3" x="682.5" y="993.35" width="2" height="12" transform="translate(-800.83 805) rotate(-90)"/><rect class="cls-3" x="194.52" y="85.5" width="9" height="35"/><rect class="cls-3" x="246.52" y="122.5" width="9" height="27"/><rect class="cls-3" x="734.5" y="993.35" width="2" height="12" transform="translate(-748.83 857) rotate(-90)"/><rect class="cls-3" x="246.52" y="85.5" width="9" height="35"/><line class="cls-5" y1="149.55" x2="319.06" y2="150.68"/></svg>