<svg id="Layer_1_HOME" data-name="Layer 1_HOME" xmlns="http://www.w3.org/2000/svg" viewBox="0 0 248.24 86.46"><defs><style>.cls-1{fill:#59469c;}.cls-2,.cls-3{fill:none;stroke:#4d4d4d;stroke-miterlimit:10;}.cls-2{stroke-width:2.91px;}.cls-3{stroke-width:4.36px;}</style></defs><title>logo</title><path class="cls-1" d="M96,54.85H93.33l-0.2-2a6.07,6.07,0,0,1-2.54,1.68,8.44,8.44,0,0,1-3.06.5,9.27,9.27,0,0,1-3.74-.79,7.62,7.62,0,0,1-3-2.51,13.43,13.43,0,0,1-2.06-4.63A28.4,28.4,0,0,1,77.93,40a25.38,25.38,0,0,1,.86-7.16,13,13,0,0,1,2.3-4.62,8.23,8.23,0,0,1,3.3-2.48,10.35,10.35,0,0,1,3.86-.74A8.77,8.77,0,0,1,93,26.13a8,8,0,0,1,2.88,3.34L93,30.79a6.22,6.22,0,0,0-1.76-2.38,4.56,4.56,0,0,0-2.92-.86,6.08,6.08,0,0,0-2.86.68,5.69,5.69,0,0,0-2.2,2.16,12.34,12.34,0,0,0-1.4,3.84,28,28,0,0,0-.5,5.72,31.73,31.73,0,0,0,.46,5.92,11.52,11.52,0,0,0,1.34,3.8,5.23,5.23,0,0,0,2.08,2,6.15,6.15,0,0,0,2.76.6,5.49,5.49,0,0,0,5-2.4V40.85H88v-2h8v16Z" transform="translate(-77.93 -24.95)"/><path class="cls-1" d="M101.85,43.19a15.3,15.3,0,0,1,.84-5.36,10.48,10.48,0,0,1,2.24-3.68,8.48,8.48,0,0,1,3.22-2.1,10.93,10.93,0,0,1,7.48,0,8.48,8.48,0,0,1,3.22,2.1,10.46,10.46,0,0,1,2.24,3.68,15.3,15.3,0,0,1,.84,5.36,15.3,15.3,0,0,1-.84,5.36,10.3,10.3,0,0,1-2.26,3.68,8.69,8.69,0,0,1-3.22,2.1,10.81,10.81,0,0,1-7.44,0,8.68,8.68,0,0,1-3.22-2.1,10.31,10.31,0,0,1-2.26-3.68A15.3,15.3,0,0,1,101.85,43.19Zm3.36,0q0,4.56,1.78,6.86a6.37,6.37,0,0,0,9.8,0q1.78-2.3,1.78-6.86t-1.78-6.88a6.35,6.35,0,0,0-9.8,0Q105.21,38.59,105.21,43.19Z" transform="translate(-77.93 -24.95)"/><path class="cls-1" d="M127.53,43.19a15.3,15.3,0,0,1,.84-5.36,10.48,10.48,0,0,1,2.24-3.68,8.48,8.48,0,0,1,3.22-2.1,10.93,10.93,0,0,1,7.48,0,8.48,8.48,0,0,1,3.22,2.1,10.46,10.46,0,0,1,2.24,3.68,15.3,15.3,0,0,1,.84,5.36,15.3,15.3,0,0,1-.84,5.36,10.3,10.3,0,0,1-2.26,3.68,8.69,8.69,0,0,1-3.22,2.1,10.81,10.81,0,0,1-7.44,0,8.68,8.68,0,0,1-3.22-2.1,10.31,10.31,0,0,1-2.26-3.68A15.3,15.3,0,0,1,127.53,43.19Zm3.36,0q0,4.56,1.78,6.86a6.37,6.37,0,0,0,9.8,0q1.78-2.3,1.78-6.86t-1.78-6.88a6.35,6.35,0,0,0-9.8,0Q130.89,38.59,130.89,43.19Z" transform="translate(-77.93 -24.95)"/><path class="cls-1" d="M159.81,31.85a17.44,17.44,0,0,1,4,.55,9.46,9.46,0,0,1,3.64,1.77,9.26,9.26,0,0,1,2.64,3.46,13.15,13.15,0,0,1,1,5.55A12.09,12.09,0,0,1,170,48.72a9.79,9.79,0,0,1-2.8,3.44,10.49,10.49,0,0,1-3.68,2,17.2,17.2,0,0,1-3.76.71H154v-23h5.81Zm-2.81,3v17h2.93a12,12,0,0,0,2.92-.35,6.18,6.18,0,0,0,2.56-1.32,6.71,6.71,0,0,0,1.8-2.64,11.77,11.77,0,0,0,.68-4.36,11.33,11.33,0,0,0-.72-4.38,7,7,0,0,0-1.88-2.68A6,6,0,0,0,162.71,35a11.17,11.17,0,0,0-2.82-.15H157Z" transform="translate(-77.93 -24.95)"/><path class="cls-1" d="M203.57,54.85l-6.44-12H193v12h-3v-29h5.53c3.12,0,5.56.58,7.32,2s2.64,3.61,2.64,6.67a9.4,9.4,0,0,1-.4,2.87A7.9,7.9,0,0,1,204,39.6a7.19,7.19,0,0,1-1.6,1.63,10.66,10.66,0,0,1-2,1.35l7.16,12.27h-4ZM193,27.85v13h2.61a6.87,6.87,0,0,0,4.76-1.67A6.06,6.06,0,0,0,202,34.55a7.26,7.26,0,0,0-1.48-4.87,6.62,6.62,0,0,0-5-1.83H193Z" transform="translate(-77.93 -24.95)"/><path class="cls-1" d="M224,43.85h-9v8h10v3H212v-23h13v3H215v7h9v2Z" transform="translate(-77.93 -24.95)"/><path class="cls-1" d="M232.53,48.95a5.5,5.5,0,0,0,.72,1.18,5.76,5.76,0,0,0,1.2,1.14,6.13,6.13,0,0,0,1.7.84,7,7,0,0,0,2.18.32,7.9,7.9,0,0,0,1.76-.2,4.8,4.8,0,0,0,1.56-.64,3.67,3.67,0,0,0,1.12-1.14,3.13,3.13,0,0,0,.44-1.7,4,4,0,0,0-.3-1.66,2.87,2.87,0,0,0-1-1.16A9.18,9.18,0,0,0,240,45q-1.2-.46-3-1.06a13.29,13.29,0,0,1-4.54-2.4,5,5,0,0,1-1.66-4,4.9,4.9,0,0,1,.52-2.18,5.75,5.75,0,0,1,1.5-1.88,7.38,7.38,0,0,1,2.4-1.3,10.17,10.17,0,0,1,3.26-.48,9,9,0,0,1,4.7,1.16,8,8,0,0,1,3,3.08l-2.8,1.12a5.45,5.45,0,0,0-1.86-2.14,5.31,5.31,0,0,0-2.94-.74,8.17,8.17,0,0,0-1.72.18,4.9,4.9,0,0,0-1.48.56,3.28,3.28,0,0,0-1,1,2.44,2.44,0,0,0-.4,1.42,3.06,3.06,0,0,0,.3,1.42,3.16,3.16,0,0,0,.94,1.06,7.44,7.44,0,0,0,1.68.9q1,0.42,2.56,1,1.76,0.64,3.08,1.22a9.13,9.13,0,0,1,2.22,1.34A4.77,4.77,0,0,1,246,46a6.71,6.71,0,0,1,.44,2.6,5.64,5.64,0,0,1-.58,2.56,5.89,5.89,0,0,1-1.64,2,8,8,0,0,1-2.56,1.32,11.93,11.93,0,0,1-6.56,0,9.66,9.66,0,0,1-2.48-1.14,8.44,8.44,0,0,1-1.78-1.54,6.92,6.92,0,0,1-1.08-1.64Z" transform="translate(-77.93 -24.95)"/><path class="cls-1" d="M256,31.85V47.39a5,5,0,0,0,1,3.6,5,5,0,0,0,3.94,1.32,5.09,5.09,0,0,0,4-1.32,5,5,0,0,0,1.12-3.6V31.85h3v15.3a7.51,7.51,0,0,1-2.06,5.68A8.47,8.47,0,0,1,260.69,55a8.88,8.88,0,0,1-6.39-2.16A7.63,7.63,0,0,1,252,47.15V31.85h4Z" transform="translate(-77.93 -24.95)"/><path class="cls-1" d="M280,31.85v20h10v3H276v-23h4Z" transform="translate(-77.93 -24.95)"/><path class="cls-1" d="M306,34.85h-6v20h-3v-20h-7v-3h16v3Z" transform="translate(-77.93 -24.95)"/><path class="cls-1" d="M312.24,48.95a5.5,5.5,0,0,0,.72,1.18,5.76,5.76,0,0,0,1.2,1.14,6.13,6.13,0,0,0,1.7.84,7,7,0,0,0,2.18.32,7.9,7.9,0,0,0,1.76-.2,4.8,4.8,0,0,0,1.56-.64,3.67,3.67,0,0,0,1.12-1.14,3.13,3.13,0,0,0,.44-1.7,4,4,0,0,0-.3-1.66,2.87,2.87,0,0,0-1-1.16,9.18,9.18,0,0,0-1.92-1q-1.2-.46-3-1.06a13.29,13.29,0,0,1-4.54-2.4,5,5,0,0,1-1.66-4,4.9,4.9,0,0,1,.52-2.18,5.75,5.75,0,0,1,1.5-1.88,7.38,7.38,0,0,1,2.4-1.3,10.17,10.17,0,0,1,3.26-.48,9,9,0,0,1,4.7,1.16,8,8,0,0,1,3,3.08L323,37.07a5.45,5.45,0,0,0-1.86-2.14,5.31,5.31,0,0,0-2.94-.74,8.17,8.17,0,0,0-1.72.18,4.9,4.9,0,0,0-1.48.56,3.28,3.28,0,0,0-1,1,2.44,2.44,0,0,0-.4,1.42,3.06,3.06,0,0,0,.3,1.42,3.16,3.16,0,0,0,.94,1.06,7.44,7.44,0,0,0,1.68.9q1,0.42,2.56,1,1.76,0.64,3.08,1.22a9.13,9.13,0,0,1,2.22,1.34,4.77,4.77,0,0,1,1.34,1.8,6.71,6.71,0,0,1,.44,2.6,5.64,5.64,0,0,1-.58,2.56,5.89,5.89,0,0,1-1.64,2,8,8,0,0,1-2.56,1.32,11.93,11.93,0,0,1-6.56,0,9.66,9.66,0,0,1-2.48-1.14,8.44,8.44,0,0,1-1.78-1.54,6.92,6.92,0,0,1-1.08-1.64Z" transform="translate(-77.93 -24.95)"/><path class="cls-1" d="M125.69,98.85L119,79.51v23.34h-3v-29h4.09l7.2,20.64,6.64-20.64H138v29h-3V79.51l-6.31,19.34h-3Z" transform="translate(-77.93 -24.95)"/><path class="cls-1" d="M149,79.85v23h-3v-23h3Z" transform="translate(-77.93 -24.95)"/><path class="cls-1" d="M172,79.85v23h-4.63L159,83.67v19.18h-3v-23h4.73L169,98.51V79.85h3Z" transform="translate(-77.93 -24.95)"/><path class="cls-1" d="M182,79.85v23h-3v-23h3Z" transform="translate(-77.93 -24.95)"/><path class="cls-1" d="M190.85,96.95a5.5,5.5,0,0,0,.72,1.18,5.76,5.76,0,0,0,1.2,1.14,6.13,6.13,0,0,0,1.7.84,7,7,0,0,0,2.18.32,7.9,7.9,0,0,0,1.76-.2,4.8,4.8,0,0,0,1.56-.64,3.67,3.67,0,0,0,1.12-1.14,3.13,3.13,0,0,0,.44-1.7,4,4,0,0,0-.3-1.66,2.87,2.87,0,0,0-1-1.16,9.18,9.18,0,0,0-1.92-1q-1.2-.46-3-1.06a13.29,13.29,0,0,1-4.54-2.4,5,5,0,0,1-1.66-4,4.9,4.9,0,0,1,.52-2.18,5.75,5.75,0,0,1,1.5-1.88,7.38,7.38,0,0,1,2.4-1.3,10.17,10.17,0,0,1,3.26-.48,9,9,0,0,1,4.7,1.16,8,8,0,0,1,3,3.08l-2.8,1.12a5.45,5.45,0,0,0-1.86-2.14,5.31,5.31,0,0,0-2.94-.74,8.17,8.17,0,0,0-1.72.18,4.9,4.9,0,0,0-1.48.56,3.28,3.28,0,0,0-1,1,2.44,2.44,0,0,0-.4,1.42,3.06,3.06,0,0,0,.3,1.42,3.16,3.16,0,0,0,.94,1.06,7.44,7.44,0,0,0,1.68.9q1,0.42,2.56,1,1.76,0.64,3.08,1.22A9.13,9.13,0,0,1,203,92.23a4.77,4.77,0,0,1,1.34,1.8,6.71,6.71,0,0,1,.44,2.6,5.64,5.64,0,0,1-.58,2.56,5.89,5.89,0,0,1-1.64,2,8,8,0,0,1-2.56,1.32,11.93,11.93,0,0,1-6.56,0,9.66,9.66,0,0,1-2.48-1.14,8.44,8.44,0,0,1-1.78-1.54,6.92,6.92,0,0,1-1.08-1.64Z" transform="translate(-77.93 -24.95)"/><path class="cls-1" d="M248.08,102.85l-5.84-9H238v9h-3v-23h5.72a16,16,0,0,1,3.72.47,8,8,0,0,1,2.88,1.31,6.25,6.25,0,0,1,1.88,2.24,7,7,0,0,1,.68,3.19,6.68,6.68,0,0,1-1.24,4.32,7.5,7.5,0,0,1-3.16,2.43l6.44,9h-3.84ZM238,82.85v9h2.65a7.57,7.57,0,0,0,4.46-1.15,4.17,4.17,0,0,0,1.46-3.59,3.78,3.78,0,0,0-1.46-3.31c-1-.75-2.41-1-4.3-1H238Z" transform="translate(-77.93 -24.95)"/><path class="cls-1" d="M259,79.85v23h-3v-23h3Z" transform="translate(-77.93 -24.95)"/><path class="cls-1" d="M279,91.85h-9v8h10v3H267v-23h13v3H270v7h9v2Z" transform="translate(-77.93 -24.95)"/><path class="cls-1" d="M287.32,96.95a5.5,5.5,0,0,0,.72,1.18,5.76,5.76,0,0,0,1.2,1.14,6.13,6.13,0,0,0,1.7.84,7,7,0,0,0,2.18.32,7.9,7.9,0,0,0,1.76-.2,4.8,4.8,0,0,0,1.56-.64,3.67,3.67,0,0,0,1.12-1.14,3.13,3.13,0,0,0,.44-1.7,4,4,0,0,0-.3-1.66,2.87,2.87,0,0,0-1-1.16,9.18,9.18,0,0,0-1.92-1q-1.2-.46-3-1.06a13.29,13.29,0,0,1-4.54-2.4,5,5,0,0,1-1.66-4,4.9,4.9,0,0,1,.52-2.18,5.75,5.75,0,0,1,1.5-1.88,7.38,7.38,0,0,1,2.4-1.3,10.17,10.17,0,0,1,3.26-.48,9,9,0,0,1,4.7,1.16,8,8,0,0,1,3,3.08l-2.8,1.12a5.45,5.45,0,0,0-1.86-2.14,5.31,5.31,0,0,0-2.94-.74,8.17,8.17,0,0,0-1.72.18,4.9,4.9,0,0,0-1.48.56,3.28,3.28,0,0,0-1,1,2.44,2.44,0,0,0-.4,1.42,3.06,3.06,0,0,0,.3,1.42,3.16,3.16,0,0,0,.94,1.06,7.44,7.44,0,0,0,1.68.9q1,0.42,2.56,1,1.76,0.64,3.08,1.22a9.13,9.13,0,0,1,2.22,1.34A4.77,4.77,0,0,1,300.8,94a6.71,6.71,0,0,1,.44,2.6,5.64,5.64,0,0,1-.58,2.56,5.89,5.89,0,0,1-1.64,2,8,8,0,0,1-2.56,1.32,11.93,11.93,0,0,1-6.56,0,9.66,9.66,0,0,1-2.48-1.14,8.44,8.44,0,0,1-1.78-1.54,6.92,6.92,0,0,1-1.08-1.64Z" transform="translate(-77.93 -24.95)"/><g id="Other"><line class="cls-2" x1="128.52" y1="56.35" x2="153.4" y2="56.52"/><line class="cls-3" x1="141.1" y1="44.98" x2="140.81" y2="86.44"/></g></svg>