<?xml version="1.0" encoding="utf-8"?>
<!-- Generator: Adobe Illustrator 22.1.0, SVG Export Plug-In . SVG Version: 6.00 Build 0)  -->
<svg version="1.1" id="Layer_1" xmlns="http://www.w3.org/2000/svg" xmlns:xlink="http://www.w3.org/1999/xlink" x="0px" y="0px"
	 viewBox="0 0 640 426" style="enable-background:new 0 0 640 426;" xml:space="preserve">
<style type="text/css">
	.st0{fill:url(#SVGID_1_);}
	.st1{fill:none;stroke:#2E3192;stroke-width:1.5;stroke-miterlimit:10;}
	.st2{fill:#2E3192;stroke:#2E3192;stroke-width:0.9176;stroke-miterlimit:10;}
	.st3{fill:#736357;stroke:#736357;stroke-width:1.0125;stroke-miterlimit:10;}
	.st4{fill:#FFFFFF;}
	.st5{fill:#6FAFED;}
</style>
<radialGradient id="SVGID_1_" cx="160.8262" cy="264.2492" r="341.555" gradientUnits="userSpaceOnUse">
	<stop  offset="0" style="stop-color:#FFFFFF"/>
	<stop  offset="1" style="stop-color:#006A54;stop-opacity:0.7"/>
</radialGradient>
<rect x="0.7" y="-0.2" class="st0" width="638.8" height="426.2"/>
<circle class="st1" cx="160.2" cy="264.8" r="91.9"/>
<path class="st2" d="M495,396.2L257,313.3c-5.2-1.8-8-7.5-6.2-12.7l3.6-10.4c1.8-5.2,7.5-8,12.7-6.2L505.2,367
	c5.2,1.8,8,7.5,6.2,12.7l-3.6,10.4C505.9,395.3,500.2,398,495,396.2z"/>
<path class="st3" d="M245.8,309.5L245.8,309.5c-1.7-0.6-2.6-2.4-2.1-4l7.6-23c0.5-1.6,2.3-2.6,4-2l0.1,0c1.6,0.5,2.6,2.3,2,4
	l-7.6,23C249.3,309.1,247.5,310,245.8,309.5z"/>
<g>
	<path class="st4" d="M251.6,64.4V33.6h4.1V63c0,1.1,0,2.1-0.1,2.9s-0.1,1.6-0.3,2.4s-0.3,1.5-0.6,2s-0.6,1-1.1,1.5s-1,0.8-1.6,1.1
		s-1.4,0.5-2.3,0.6s-1.9,0.2-3.1,0.2h-0.8l-0.5-3.3h1.7c0.8,0,1.5-0.1,2.1-0.3s1-0.5,1.3-0.8s0.6-0.7,0.7-1.3s0.3-1.1,0.3-1.6
		S251.6,65.3,251.6,64.4z"/>
	<path class="st4" d="M294.7,51.4c0,2.6-0.4,5.1-1.1,7.2s-1.8,4.1-3.1,5.6s-3.1,2.8-5.2,3.7s-4.4,1.3-7,1.3c-3.5,0-6.5-0.7-9-2.2
		s-4.4-3.6-5.6-6.2s-1.9-5.8-1.9-9.4c0-5.5,1.4-9.9,4.3-13.1s6.9-4.8,12.1-4.8c5.1,0,9.1,1.6,12,4.8S294.7,45.9,294.7,51.4z
		 M266.1,51.4c0,4.5,1,7.9,3.1,10.5s5.1,3.8,9.1,3.8s7-1.3,9-3.8s3-6,3-10.5c0-4.6-1-8.1-3.1-10.6s-5-3.8-9-3.8s-7,1.3-9,3.8
		S266.1,46.8,266.1,51.4z"/>
	<path class="st4" d="M305.6,68.7h-4.1V34h4.1V68.7z"/>
	<path class="st4" d="M341.4,68.7h-4.6l-18-27.3l-1.2-1.6c0.1,3.3,0.2,6.2,0.2,8.8v20.1H314V34h4.5l18,27.3l1.2,1.6
		c-0.1-5-0.2-7.9-0.2-8.6V34h3.8V68.7z"/>
	<path class="st4" d="M387.4,34v22.5c0,4-1.1,7.1-3.3,9.3s-5.5,3.4-9.9,3.4s-7.7-1.1-9.9-3.4s-3.2-5.4-3.2-9.4V34h4.1v22.5
		c0,3.1,0.7,5.5,2.2,6.9s3.8,2.2,6.9,2.2c3,0,5.3-0.8,6.8-2.3s2.2-3.8,2.2-6.9V34H387.4z"/>
	<path class="st4" d="M394.6,63c3.6,1.8,7.5,2.7,11.6,2.7c5.1,0,7.6-2.3,7.6-6.9c0-1.5-0.4-2.7-1.2-3.6s-2.3-1.7-4.4-2.2l-6.9-1.7
		c-5.3-1.3-7.9-4.1-7.9-8.4c0-3.3,1.1-5.7,3.4-7.3s5.4-2.4,9.4-2.4c2.1,0,4.1,0.2,5.9,0.7s3.4,1.1,4.6,1.8l-1.2,3.3
		c-1-0.6-2.4-1.1-4.2-1.5s-3.5-0.7-5.2-0.7c-5.7,0-8.5,2-8.5,5.9c0,1.3,0.4,2.4,1.3,3.2s2.2,1.4,3.9,1.8l6.6,1.6
		c2.8,0.7,4.9,1.7,6.4,3.2s2.2,3.6,2.2,6.3c0,3.5-1.1,6.2-3.2,8s-5.1,2.7-8.8,2.7c-2.8,0-5.3-0.3-7.4-0.9s-3.9-1.2-5.1-2L394.6,63z"
		/>
	<path class="st4" d="M435.6,47.9c-1,0-1.7,0.3-2.1,0.9s-0.6,1.6-0.6,3v0.7h3.9v1.8H433v14.3h-2.4V54.4h-2.6l0.2-1.6l2.4-0.2v-0.7
		c0-2.1,0.4-3.6,1.2-4.5s2-1.4,3.7-1.4c0.7,0,1.5,0.1,2.4,0.2l-0.2,1.9C436.7,48,436.1,47.9,435.6,47.9z"/>
	<path class="st4" d="M453.3,60.6c0,2.5-0.7,4.5-2,6.1s-3.2,2.3-5.5,2.3c-2.3,0-4.1-0.8-5.4-2.3c-1.3-1.6-2-3.6-2-6
		c0-2.5,0.7-4.5,2-6.1s3.2-2.3,5.5-2.3c2.3,0,4.1,0.8,5.4,2.3S453.3,58.2,453.3,60.6z M441,60.7c0,1.9,0.4,3.4,1.3,4.6
		s2.1,1.7,3.7,1.7c1.6,0,2.8-0.6,3.6-1.7s1.2-2.7,1.2-4.6c0-2-0.4-3.5-1.2-4.6c-0.8-1.1-2-1.7-3.7-1.7c-1.6,0-2.8,0.6-3.7,1.7
		S441,58.8,441,60.7z"/>
	<path class="st4" d="M464,52.5c0.4,0,0.8,0,1.2,0.1l-0.1,2.3c-0.4-0.1-0.8-0.1-1.2-0.1c-1.4,0-2.5,0.5-3.3,1.4s-1.3,2.1-1.3,3.5v9
		h-2.4c0-9.9,0-15.2,0-16.1h2l0.2,2.9c0.6-0.9,1.3-1.6,2.1-2.2S463,52.5,464,52.5z"/>
	<path class="st4" d="M485.1,68.7c-0.1-0.6-0.3-1.3-0.4-2c-0.9,0.9-1.7,1.5-2.5,1.8s-1.7,0.5-2.8,0.5c-1.5,0-2.7-0.4-3.6-1.2
		s-1.4-1.9-1.4-3.4c0-1.6,0.6-2.9,1.9-3.6c1.2-0.8,3-1.3,5.4-1.5c0.3,0,0.8-0.1,1.5-0.1c0.6-0.1,1.1-0.1,1.5-0.1v-1.4
		c0-1.1-0.3-2-0.8-2.5s-1.4-0.8-2.5-0.8c-1.6,0-3.2,0.4-4.8,1.2c0-0.1-0.2-0.5-0.4-1s-0.3-0.9-0.3-0.9c0.7-0.4,1.6-0.7,2.5-1
		c1-0.2,2-0.4,3-0.4c2,0,3.4,0.4,4.3,1.3c0.9,0.9,1.3,2.4,1.3,4.5v10.6H485.1z M479.8,67.1c1.2,0,2.2-0.3,3.1-1s1.5-1.5,1.7-2.6
		v-2.7c0,0-0.3,0-0.9,0.1c-0.5,0-0.9,0.1-1.1,0.1c-2.1,0.2-3.6,0.5-4.4,1c-0.8,0.5-1.3,1.3-1.3,2.4c0,0.9,0.3,1.5,0.8,1.9
		S478.9,67.1,479.8,67.1z"/>
	<path class="st4" d="M503.9,69c-1.6,0-2.7-0.4-3.4-1.2s-1-2-1.1-3.7v-9.7h-2.4l0.1-1.6l2.3-0.2l0.8-3.7l1.6-0.1v3.7h4.5v1.8h-4.5
		v9.2c0,1.2,0.2,2.1,0.6,2.6s1,0.7,1.9,0.7c0.3,0,1-0.1,2.1-0.2l0.1,1.9C505.4,68.9,504.5,69,503.9,69z"/>
	<path class="st4" d="M512,46.8v2.9h-2.5v-2.9H512z M512,52.6v16.1h-2.5V52.6H512z"/>
	<path class="st4" d="M537,68.7v-8.4c0-0.8,0-1.4-0.1-2c0-0.5-0.1-1.1-0.2-1.6c-0.1-0.5-0.3-1-0.5-1.3c-0.2-0.3-0.5-0.6-0.9-0.8
		s-0.9-0.3-1.4-0.3c-1.1,0-2,0.3-2.7,0.9s-1.3,1.4-1.6,2.4c-0.1,0.7-0.1,1.5-0.1,2.3v8.8H527v-8.6c0-0.7,0-1.4-0.1-1.9
		s-0.1-1-0.3-1.6s-0.3-0.9-0.5-1.2s-0.5-0.6-0.9-0.7s-0.8-0.3-1.4-0.3c-1.2,0-2.2,0.3-3,0.9c-0.8,0.6-1.3,1.4-1.6,2.4
		c-0.1,0.8-0.1,1.6-0.1,2.4v8.6h-2.4c0-10,0-15.4,0-16.1h2.1l0.3,2.3c0.5-0.7,1.2-1.4,2.1-1.9s1.9-0.8,3.1-0.8
		c0.6,0,1.1,0.1,1.6,0.2s0.9,0.3,1.3,0.5c0.3,0.2,0.6,0.4,0.9,0.7s0.5,0.5,0.6,0.8s0.3,0.5,0.4,0.8c1.2-1.9,3-2.9,5.4-2.9
		c1.8,0,3.1,0.5,3.9,1.5c0.8,1,1.3,2.5,1.3,4.5v10.3H537z"/>
	<path class="st4" d="M549.4,69c-2.3,0-4.2-0.7-5.5-2.2c-1.3-1.5-2-3.5-2-6.1c0-2.5,0.6-4.5,1.9-6.1s3-2.3,5.1-2.4
		c2,0,3.6,0.7,4.7,2s1.8,3.2,1.8,5.5c0,0.1,0,0.3,0,0.6c0,0.3,0,0.5,0,0.7h-11c0,1.8,0.5,3.2,1.4,4.3s2.1,1.5,3.7,1.5
		c1.7,0,3.4-0.4,5.1-1.3l0.4,2C553.3,68.5,551.5,69,549.4,69z M551.9,55.6c-0.7-0.9-1.7-1.3-3-1.3s-2.3,0.4-3.1,1.3
		s-1.3,2.1-1.4,3.6h8.5C552.9,57.7,552.6,56.4,551.9,55.6z"/>
	<path class="st4" d="M580.5,60.6c0,2.5-0.7,4.5-2,6.1S575.3,69,573,69c-2.3,0-4.1-0.8-5.4-2.3c-1.3-1.6-2-3.6-2-6
		c0-2.5,0.7-4.5,2-6.1s3.2-2.3,5.5-2.3c2.3,0,4.1,0.8,5.4,2.3S580.5,58.2,580.5,60.6z M568.1,60.7c0,1.9,0.4,3.4,1.3,4.6
		s2.1,1.7,3.7,1.7c1.6,0,2.8-0.6,3.6-1.7s1.2-2.7,1.2-4.6c0-2-0.4-3.5-1.2-4.6c-0.8-1.1-2-1.7-3.7-1.7c-1.6,0-2.8,0.6-3.7,1.7
		S568.1,58.8,568.1,60.7z"/>
	<path class="st4" d="M590,47.9c-1,0-1.7,0.3-2.1,0.9s-0.6,1.6-0.6,3v0.7h3.9v1.8h-3.9v14.3h-2.4V54.4h-2.6l0.2-1.6l2.4-0.2v-0.7
		c0-2.1,0.4-3.6,1.2-4.5s2-1.4,3.7-1.4c0.7,0,1.5,0.1,2.4,0.2l-0.2,1.9C591.1,48,590.5,47.9,590,47.9z"/>
	<path class="st4" d="M272.9,105c-1.6,0-2.7-0.4-3.3-1.3s-1-2.3-1-4.4v-17l2.4-0.1v16.1c0,0.7,0,1.2,0,1.6s0.1,0.8,0.1,1.2
		s0.1,0.7,0.2,0.9s0.2,0.4,0.4,0.5s0.4,0.3,0.7,0.3s0.6,0.1,1,0.1c0.3,0,0.9-0.1,1.8-0.2l0.1,1.9C274.4,104.9,273.6,105,272.9,105z"
		/>
	<path class="st4" d="M283.7,105c-2.3,0-4.2-0.7-5.5-2.2s-2-3.5-2-6.1c0-2.5,0.6-4.5,1.9-6.1s3-2.3,5.1-2.4c2,0,3.6,0.7,4.7,2
		s1.8,3.2,1.8,5.5c0,0.1,0,0.3,0,0.6c0,0.3,0,0.5,0,0.7h-11c0,1.8,0.5,3.2,1.4,4.3s2.1,1.5,3.7,1.5c1.7,0,3.4-0.4,5.1-1.3l0.4,2
		C287.6,104.5,285.8,105,283.7,105z M286.2,91.6c-0.7-0.9-1.7-1.3-3-1.3s-2.3,0.4-3.1,1.3s-1.3,2.1-1.4,3.6h8.5
		C287.2,93.7,286.9,92.4,286.2,91.6z"/>
	<path class="st4" d="M302.9,104.7c-0.1-0.6-0.3-1.3-0.4-2c-0.9,0.9-1.7,1.5-2.5,1.8s-1.7,0.5-2.8,0.5c-1.5,0-2.7-0.4-3.6-1.2
		s-1.4-1.9-1.4-3.4c0-1.6,0.6-2.9,1.9-3.6c1.2-0.8,3-1.3,5.4-1.5c0.3,0,0.8-0.1,1.5-0.1c0.6-0.1,1.1-0.1,1.5-0.1v-1.4
		c0-1.1-0.3-2-0.8-2.5s-1.4-0.8-2.5-0.8c-1.6,0-3.2,0.4-4.8,1.2c0-0.1-0.2-0.5-0.4-1s-0.3-0.9-0.3-0.9c0.7-0.4,1.6-0.7,2.5-1
		c1-0.2,2-0.4,3-0.4c2,0,3.4,0.4,4.3,1.3c0.9,0.9,1.3,2.4,1.3,4.5v10.6H302.9z M297.6,103.1c1.2,0,2.2-0.3,3.1-1s1.5-1.5,1.7-2.6
		v-2.7c0,0-0.3,0-0.9,0.1c-0.5,0-0.9,0.1-1.1,0.1c-2.1,0.2-3.6,0.5-4.4,1c-0.8,0.5-1.3,1.3-1.3,2.4c0,0.9,0.3,1.5,0.8,1.9
		S296.7,103.1,297.6,103.1z"/>
	<path class="st4" d="M316.2,88.5c0.4,0,0.8,0,1.2,0.1l-0.1,2.3c-0.4-0.1-0.8-0.1-1.2-0.1c-1.4,0-2.5,0.5-3.3,1.4s-1.3,2.1-1.3,3.5
		v9h-2.4c0-9.9,0-15.2,0-16.1h2l0.2,2.9c0.6-0.9,1.3-1.6,2.1-2.2S315.3,88.5,316.2,88.5z"/>
	<path class="st4" d="M320,104.7V88.6h2.1l0.3,2.3c0.6-0.8,1.4-1.4,2.4-1.9c1-0.5,2-0.7,3.1-0.7c1.9,0,3.2,0.5,4.1,1.6
		s1.3,2.6,1.3,4.8v10h-2.4c0-6.4,0-9.9,0-10.4c0-1.4-0.3-2.4-0.8-3c-0.5-0.6-1.4-1-2.6-1c-1.3,0-2.3,0.3-3.1,0.9s-1.4,1.4-1.6,2.4
		c-0.1,0.7-0.1,1.4-0.1,2.3v8.8H320z"/>
	<path class="st4" d="M340.2,82.8v2.9h-2.5v-2.9H340.2z M340.2,88.6v16.1h-2.5V88.6H340.2z"/>
	<path class="st4" d="M344.8,104.7V88.6h2.1l0.3,2.3c0.6-0.8,1.4-1.4,2.4-1.9c1-0.5,2-0.7,3.1-0.7c1.9,0,3.2,0.5,4.1,1.6
		s1.3,2.6,1.3,4.8v10h-2.4c0-6.4,0-9.9,0-10.4c0-1.4-0.3-2.4-0.8-3c-0.5-0.6-1.4-1-2.6-1c-1.3,0-2.3,0.3-3.1,0.9s-1.4,1.4-1.6,2.4
		c-0.1,0.7-0.1,1.4-0.1,2.3v8.8H344.8z"/>
	<path class="st4" d="M364.6,112l-0.2-2.2h3c0.8,0,1.6-0.1,2.2-0.2s1.1-0.3,1.5-0.6s0.7-0.6,1-0.9s0.4-0.8,0.6-1.3
		c0.1-0.5,0.2-1,0.3-1.6c0-0.5,0.1-1.1,0.1-1.9v-1.4c-0.6,0.8-1.3,1.5-2,1.9s-1.8,0.7-2.9,0.7c-0.9,0-1.8-0.2-2.5-0.5
		c-0.8-0.3-1.4-0.7-2-1.3c-0.5-0.5-1-1.1-1.4-1.8s-0.6-1.4-0.8-2.2s-0.3-1.5-0.3-2.2c0-1.2,0.1-2.3,0.4-3.3s0.7-1.9,1.3-2.7
		s1.3-1.4,2.2-1.8c0.9-0.4,2-0.7,3.2-0.7c1.1,0,2,0.2,2.8,0.6c0.8,0.4,1.5,1,2.1,1.9v-2.1h2.4v14.9c0,0.7,0,1.3-0.1,1.8
		c0,0.5-0.1,1.1-0.3,1.7c-0.1,0.6-0.3,1.2-0.5,1.6s-0.5,0.9-0.9,1.4c-0.4,0.5-0.9,0.8-1.5,1.1s-1.3,0.5-2.1,0.7s-1.8,0.3-2.8,0.3
		H364.6z M368.4,102.6c0.8,0,1.6-0.1,2.2-0.4s1.1-0.7,1.5-1.2s0.6-1.1,0.8-1.7s0.3-1.3,0.3-2.1v-1.2c0-0.8-0.1-1.5-0.3-2.2
		s-0.4-1.3-0.8-1.8c-0.4-0.5-0.9-0.9-1.5-1.2s-1.3-0.4-2.1-0.4c-0.7,0-1.3,0.1-1.8,0.4c-0.6,0.3-1,0.6-1.4,1s-0.7,0.9-0.9,1.5
		c-0.2,0.6-0.4,1.1-0.5,1.7s-0.2,1.1-0.2,1.7c0,0.6,0.1,1.1,0.2,1.7s0.3,1.1,0.6,1.6s0.6,1,0.9,1.4s0.8,0.7,1.4,1
		C367.1,102.5,367.7,102.6,368.4,102.6z"/>
	<path class="st4" d="M397,104.7c-0.1-0.6-0.3-1.3-0.4-2c-0.9,0.9-1.7,1.5-2.5,1.8s-1.7,0.5-2.8,0.5c-1.5,0-2.7-0.4-3.6-1.2
		s-1.4-1.9-1.4-3.4c0-1.6,0.6-2.9,1.9-3.6c1.2-0.8,3-1.3,5.4-1.5c0.3,0,0.8-0.1,1.5-0.1c0.6-0.1,1.1-0.1,1.5-0.1v-1.4
		c0-1.1-0.3-2-0.8-2.5s-1.4-0.8-2.5-0.8c-1.6,0-3.2,0.4-4.8,1.2c0-0.1-0.2-0.5-0.4-1s-0.3-0.9-0.3-0.9c0.7-0.4,1.6-0.7,2.5-1
		c1-0.2,2-0.4,3-0.4c2,0,3.4,0.4,4.3,1.3c0.9,0.9,1.3,2.4,1.3,4.5v10.6H397z M391.6,103.1c1.2,0,2.2-0.3,3.1-1s1.5-1.5,1.7-2.6v-2.7
		c0,0-0.3,0-0.9,0.1c-0.5,0-0.9,0.1-1.1,0.1c-2.1,0.2-3.6,0.5-4.4,1c-0.8,0.5-1.3,1.3-1.3,2.4c0,0.9,0.3,1.5,0.8,1.9
		S390.8,103.1,391.6,103.1z"/>
	<path class="st4" d="M403.1,104.7V88.6h2.1l0.3,2.3c0.6-0.8,1.4-1.4,2.4-1.9c1-0.5,2-0.7,3.1-0.7c1.9,0,3.2,0.5,4.1,1.6
		s1.3,2.6,1.3,4.8v10h-2.4c0-6.4,0-9.9,0-10.4c0-1.4-0.3-2.4-0.8-3c-0.5-0.6-1.4-1-2.6-1c-1.3,0-2.3,0.3-3.1,0.9s-1.4,1.4-1.6,2.4
		c-0.1,0.7-0.1,1.4-0.1,2.3v8.8H403.1z"/>
	<path class="st4" d="M431.5,102.4c-0.5,0.8-1.2,1.5-2.1,1.9s-1.9,0.7-2.9,0.7c-2.1,0-3.8-0.8-5-2.3s-1.8-3.6-1.8-6.2
		c0-2.5,0.6-4.5,1.8-6s2.9-2.3,4.9-2.3c1.1,0,2.1,0.2,3,0.7s1.6,1.1,2.1,1.9l0-1.4v-7.1l2.4-0.1v22.5h-2.1L431.5,102.4z
		 M426.7,102.9c1.6,0,2.8-0.5,3.6-1.6c0.8-1,1.2-2.5,1.2-4.4c0-2.2-0.4-3.8-1.1-4.9s-2-1.6-3.7-1.6c-0.8,0-1.4,0.2-2,0.5
		s-1,0.8-1.4,1.3s-0.6,1.2-0.8,2s-0.3,1.6-0.3,2.5c0,1.3,0.2,2.3,0.5,3.3c0.3,0.9,0.8,1.7,1.5,2.2S425.7,102.9,426.7,102.9z"/>
	<path class="st4" d="M451.8,83.9c-1,0-1.7,0.3-2.1,0.9s-0.6,1.6-0.6,3v0.7h3.9v1.8h-3.9v14.3h-2.4V90.4h-2.6l0.2-1.6l2.4-0.2v-0.7
		c0-2.1,0.4-3.6,1.2-4.5s2-1.4,3.7-1.4c0.7,0,1.5,0.1,2.4,0.2l-0.2,1.9C452.9,84,452.2,83.9,451.8,83.9z"/>
	<path class="st4" d="M454.9,99.3V88.6h2.5v10.7c0,0.7,0.1,1.3,0.3,1.8s0.5,0.9,0.9,1.1c0.4,0.3,0.8,0.5,1.3,0.6s1,0.2,1.6,0.2
		c1.3,0,2.3-0.3,3-0.8s1.1-1.5,1.1-2.8V88.6h2.5v10.7c0,0.8-0.1,1.6-0.4,2.2s-0.5,1.2-0.9,1.6c-0.4,0.4-0.9,0.8-1.4,1.1
		s-1.1,0.5-1.8,0.6s-1.3,0.2-2,0.2c-0.7,0-1.4-0.1-2-0.2s-1.2-0.3-1.8-0.6s-1-0.6-1.4-1.1c-0.4-0.4-0.7-1-1-1.6
		S454.9,100.1,454.9,99.3z"/>
	<path class="st4" d="M471.6,104.7V88.6h2.1l0.3,2.3c0.6-0.8,1.4-1.4,2.4-1.9c1-0.5,2-0.7,3.1-0.7c1.9,0,3.2,0.5,4.1,1.6
		s1.3,2.6,1.3,4.8v10h-2.4c0-6.4,0-9.9,0-10.4c0-1.4-0.3-2.4-0.8-3c-0.5-0.6-1.4-1-2.6-1c-1.3,0-2.3,0.3-3.1,0.9s-1.4,1.4-1.6,2.4
		c-0.1,0.7-0.1,1.4-0.1,2.3v8.8H471.6z"/>
	<path class="st4" d="M506.4,104.7c-0.1-0.6-0.3-1.3-0.4-2c-0.9,0.9-1.7,1.5-2.5,1.8s-1.7,0.5-2.8,0.5c-1.5,0-2.7-0.4-3.6-1.2
		s-1.4-1.9-1.4-3.4c0-1.6,0.6-2.9,1.9-3.6c1.2-0.8,3-1.3,5.4-1.5c0.3,0,0.8-0.1,1.5-0.1c0.6-0.1,1.1-0.1,1.5-0.1v-1.4
		c0-1.1-0.3-2-0.8-2.5s-1.4-0.8-2.5-0.8c-1.6,0-3.2,0.4-4.8,1.2c0-0.1-0.2-0.5-0.4-1s-0.3-0.9-0.3-0.9c0.7-0.4,1.6-0.7,2.5-1
		c1-0.2,2-0.4,3-0.4c2,0,3.4,0.4,4.3,1.3c0.9,0.9,1.3,2.4,1.3,4.5v10.6H506.4z M501,103.1c1.2,0,2.2-0.3,3.1-1s1.5-1.5,1.7-2.6v-2.7
		c0,0-0.3,0-0.9,0.1c-0.5,0-0.9,0.1-1.1,0.1c-2.1,0.2-3.6,0.5-4.4,1c-0.8,0.5-1.3,1.3-1.3,2.4c0,0.9,0.3,1.5,0.8,1.9
		S500.2,103.1,501,103.1z"/>
	<path class="st4" d="M517.3,105c-1.1,0-2.1-0.1-3-0.4c-0.9-0.2-1.7-0.5-2.2-0.9l0.3-2.1c1.6,0.9,3.2,1.3,4.8,1.3
		c2.4,0,3.6-0.8,3.7-2.5c0-0.7-0.3-1.3-0.8-1.7s-1.5-0.9-3-1.4l-1.2-0.4c-1.4-0.5-2.4-1-3-1.7c-0.6-0.7-0.9-1.6-0.9-2.6
		c0-1.3,0.5-2.3,1.5-3.1c1-0.8,2.4-1.2,4.2-1.2c1.8,0,3.5,0.4,5,1.1l-0.7,1.9c-1.5-0.6-2.9-0.9-4.2-0.9c-1,0-1.8,0.2-2.4,0.6
		s-0.9,1-0.9,1.7c0,0.6,0.2,1.1,0.6,1.4s1.3,0.7,2.5,1.1c0.3,0.1,0.7,0.3,1.2,0.4c1.6,0.5,2.8,1.1,3.4,1.9s1,1.7,1,2.9
		c0,1.5-0.6,2.6-1.6,3.4S519,105,517.3,105z"/>
	<path class="st4" d="M547.8,104.7c-2.3-7.2-3.7-11.7-4.2-13.5c-0.3,1.1-0.6,2.2-1,3.5s-0.7,2.3-1,3.2s-0.7,2.1-1.1,3.5
		s-0.8,2.5-1.1,3.3h-2.6l-4.6-16.1h2.5l3.4,13.2c0.5-1.6,1.9-5.9,4.2-13.2h2.8c2.3,7.4,3.7,11.7,4.1,13.1l3.4-13.1h2.5l-4.6,16.1
		H547.8z"/>
	<path class="st4" d="M564.1,105c-2.3,0-4.2-0.7-5.5-2.2c-1.3-1.5-2-3.5-2-6.1c0-2.5,0.6-4.5,1.9-6.1s3-2.3,5.1-2.4
		c2,0,3.6,0.7,4.7,2s1.8,3.2,1.8,5.5c0,0.1,0,0.3,0,0.6c0,0.3,0,0.5,0,0.7h-11c0,1.8,0.5,3.2,1.4,4.3s2.1,1.5,3.7,1.5
		c1.7,0,3.4-0.4,5.1-1.3l0.4,2C568.1,104.5,566.2,105,564.1,105z M566.6,91.6c-0.7-0.9-1.7-1.3-3-1.3s-2.3,0.4-3.1,1.3
		s-1.3,2.1-1.4,3.6h8.5C567.6,93.7,567.3,92.4,566.6,91.6z"/>
	<path class="st4" d="M307.4,144.9c0,5.6-1.6,9.9-4.8,12.9s-7.7,4.5-13.4,4.5h-10.3v-34.7h9.6c2.9,0,5.5,0.3,7.8,1s4.3,1.7,5.9,3.1
		s3,3.2,3.9,5.4S307.4,142,307.4,144.9z M303,145c0-4.8-1.3-8.4-3.8-10.6s-6.1-3.3-10.9-3.3h-5.4v27.6h6.1c4.6,0,8-1.2,10.4-3.5
		S303,149.6,303,145z"/>
	<path class="st4" d="M318.3,162.3h-4.1v-34.7h4.1V162.3z"/>
	<path class="st4" d="M326.1,156.6c3.6,1.8,7.5,2.7,11.6,2.7c5.1,0,7.6-2.3,7.6-6.9c0-1.5-0.4-2.7-1.2-3.6s-2.3-1.7-4.4-2.2
		l-6.9-1.7c-5.3-1.3-7.9-4.1-7.9-8.4c0-3.3,1.1-5.7,3.4-7.3s5.4-2.4,9.4-2.4c2.1,0,4.1,0.2,5.9,0.7s3.4,1.1,4.6,1.8l-1.2,3.3
		c-1-0.6-2.4-1.1-4.2-1.5s-3.5-0.7-5.2-0.7c-5.7,0-8.5,2-8.5,5.9c0,1.3,0.4,2.4,1.3,3.2s2.2,1.4,3.9,1.8l6.6,1.6
		c2.8,0.7,4.9,1.7,6.4,3.2s2.2,3.6,2.2,6.3c0,3.5-1.1,6.2-3.2,8s-5.1,2.7-8.8,2.7c-2.8,0-5.3-0.3-7.4-0.9s-3.9-1.2-5.1-2
		L326.1,156.6z"/>
	<path class="st4" d="M370.7,130.6c-2.6,0-4.9,0.6-6.7,1.9s-3.3,3-4.2,5.1s-1.4,4.6-1.4,7.4c0,2.1,0.3,4,0.8,5.7s1.3,3.2,2.3,4.5
		s2.3,2.3,3.9,3s3.4,1.1,5.5,1.1c2.7,0,5.4-0.7,8.3-2.1l0.7,3.4c-2.3,1.5-5.5,2.2-9.4,2.2c-2.6,0-4.9-0.4-7-1.3s-3.8-2.1-5.1-3.7
		s-2.4-3.5-3.1-5.7s-1.1-4.6-1.1-7.3c0-2.6,0.4-5,1.1-7.2s1.8-4.1,3.2-5.6s3.1-2.8,5.2-3.7s4.4-1.3,7-1.3c3.9,0,7.2,0.9,9.8,2.6
		l-1.6,3.3C376.3,131.4,373.6,130.6,370.7,130.6z"/>
	<path class="st4" d="M417.1,145c0,2.6-0.4,5.1-1.1,7.2s-1.8,4.1-3.1,5.6s-3.1,2.8-5.2,3.7s-4.4,1.3-7,1.3c-3.5,0-6.5-0.7-9-2.2
		s-4.4-3.6-5.6-6.2s-1.9-5.8-1.9-9.4c0-5.5,1.4-9.9,4.3-13.1s6.9-4.8,12.1-4.8c5.1,0,9.1,1.6,12,4.8S417.1,139.5,417.1,145z
		 M388.6,145c0,4.5,1,7.9,3.1,10.5s5.1,3.8,9.1,3.8s7-1.3,9-3.8s3-6,3-10.5c0-4.6-1-8.1-3.1-10.6s-5-3.8-9-3.8s-7,1.3-9,3.8
		S388.6,140.4,388.6,145z"/>
	<path class="st4" d="M444.1,127.6h4.3l-12.6,34.7h-4.2l-12.5-34.7h4.3l7.7,22c1,2.9,1.9,5.6,2.6,8.1c0.2-1.2,1.1-3.9,2.6-8.2
		C438.8,142.6,441.4,135.3,444.1,127.6z"/>
	<path class="st4" d="M452.4,162.3v-34.7h19.9l-0.2,3.6h-15.7v11.3h14.9v3.5h-14.9v12.6h16.2l-0.2,3.6H452.4z"/>
	<path class="st4" d="M504.9,162.3h-4.7l-4.8-10.9c-1.3-2.9-2.1-4.7-2.5-5.3c-1.1,0.1-2.5,0.1-4.1,0.1l-6.2-0.2v16.2h-4.1v-35.1
		h11.1c1.3,0,2.4,0,3.4,0.1s2,0.2,2.9,0.3s1.8,0.4,2.5,0.7s1.4,0.7,2,1.1s1.1,1,1.5,1.7s0.7,1.4,0.9,2.3s0.3,1.9,0.3,3
		c0,2.2-0.6,4.1-1.7,5.6s-2.8,2.7-4.9,3.3c0,0,0.2,0.3,0.5,0.8s0.7,1.2,1.1,2s0.8,1.4,1,1.9L504.9,162.3z M482.7,130.9v11.7
		c0.6,0,2,0,4,0s3.6,0,4.7,0c3,0,5.1-0.5,6.2-1.5s1.8-2.6,1.8-4.7c0-1.9-0.6-3.3-1.7-4.2s-3-1.4-5.6-1.4H482.7z"/>
	<path class="st4" d="M534.7,154.2c0,2.5-0.7,4.5-2,6.1s-3.2,2.3-5.5,2.3c-2.3,0-4.1-0.8-5.4-2.3c-1.3-1.6-2-3.6-2-6
		c0-2.5,0.7-4.5,2-6.1s3.2-2.3,5.5-2.3c2.3,0,4.1,0.8,5.4,2.3S534.7,151.8,534.7,154.2z M522.4,154.3c0,1.9,0.4,3.4,1.3,4.6
		s2.1,1.7,3.7,1.7c1.6,0,2.8-0.6,3.6-1.7s1.2-2.7,1.2-4.6c0-2-0.4-3.5-1.2-4.6c-0.8-1.1-2-1.7-3.7-1.7c-1.6,0-2.8,0.6-3.7,1.7
		S522.4,152.4,522.4,154.3z"/>
	<path class="st4" d="M537.6,156.9v-10.7h2.5V157c0,0.7,0.1,1.3,0.3,1.8s0.5,0.9,0.9,1.1c0.4,0.3,0.8,0.5,1.3,0.6s1,0.2,1.6,0.2
		c1.3,0,2.3-0.3,3-0.8s1.1-1.5,1.1-2.8v-10.7h2.5v10.7c0,0.8-0.1,1.6-0.4,2.2s-0.5,1.2-0.9,1.6c-0.4,0.4-0.9,0.8-1.4,1.1
		s-1.1,0.5-1.8,0.6s-1.3,0.2-2,0.2c-0.7,0-1.4-0.1-2-0.2s-1.2-0.3-1.8-0.6c-0.6-0.3-1-0.6-1.4-1.1c-0.4-0.4-0.7-1-1-1.6
		S537.6,157.7,537.6,156.9z"/>
	<path class="st4" d="M561.5,146.1c0.4,0,0.8,0,1.2,0.1l-0.1,2.3c-0.4-0.1-0.8-0.1-1.2-0.1c-1.4,0-2.5,0.5-3.3,1.4
		c-0.9,1-1.3,2.1-1.3,3.5v9h-2.4c0-9.9,0-15.2,0-16.1h2l0.2,2.9c0.6-0.9,1.3-1.6,2.1-2.2S560.5,146.1,561.5,146.1z"/>
	<path class="st4" d="M253.8,198.6c-1.6,0-2.7-0.4-3.4-1.2s-1-2-1.1-3.7V184H247l0.1-1.6l2.3-0.2l0.8-3.7l1.6-0.1v3.7h4.5v1.8h-4.5
		v9.2c0,1.2,0.2,2.1,0.6,2.6s1,0.7,1.9,0.7c0.3,0,1-0.1,2.1-0.2l0.1,1.9C255.3,198.5,254.4,198.6,253.8,198.6z"/>
	<path class="st4" d="M269,198.3c-0.1-0.6-0.3-1.3-0.4-2c-0.9,0.9-1.7,1.5-2.5,1.8s-1.7,0.5-2.8,0.5c-1.5,0-2.7-0.4-3.6-1.2
		s-1.4-1.9-1.4-3.4c0-1.6,0.6-2.9,1.9-3.6s3-1.3,5.4-1.5c0.3,0,0.8-0.1,1.5-0.1s1.1-0.1,1.5-0.1v-1.4c0-1.1-0.3-2-0.8-2.5
		s-1.4-0.8-2.5-0.8c-1.6,0-3.2,0.4-4.8,1.2c0-0.1-0.2-0.5-0.4-1c-0.2-0.6-0.3-0.9-0.3-0.9c0.7-0.4,1.6-0.7,2.5-1s2-0.4,3-0.4
		c2,0,3.4,0.4,4.3,1.3c0.9,0.9,1.3,2.4,1.3,4.5v10.6H269z M263.6,196.6c1.2,0,2.2-0.3,3.1-1s1.5-1.5,1.7-2.6v-2.7c0,0-0.3,0-0.9,0.1
		s-0.9,0.1-1.1,0.1c-2.1,0.2-3.6,0.5-4.4,1s-1.3,1.3-1.3,2.4c0,0.9,0.3,1.5,0.8,1.9S262.7,196.6,263.6,196.6z"/>
	<path class="st4" d="M279.4,198.6c-1.6,0-2.7-0.4-3.3-1.3s-1-2.3-1-4.4v-17l2.4-0.1V192c0,0.7,0,1.2,0,1.6s0.1,0.8,0.1,1.2
		s0.1,0.7,0.2,0.9s0.2,0.4,0.4,0.5c0.2,0.2,0.4,0.3,0.7,0.3s0.6,0.1,1,0.1c0.3,0,0.9-0.1,1.8-0.2l0.1,1.9
		C280.9,198.5,280.1,198.6,279.4,198.6z"/>
	<path class="st4" d="M290.2,198.6c-2.3,0-4.2-0.7-5.5-2.2c-1.3-1.5-2-3.5-2-6.1c0-2.5,0.6-4.5,1.9-6.1c1.3-1.5,3-2.3,5.1-2.4
		c2,0,3.6,0.7,4.7,2c1.2,1.4,1.8,3.2,1.8,5.5c0,0.1,0,0.3,0,0.6c0,0.3,0,0.5,0,0.7h-11c0,1.8,0.5,3.3,1.4,4.3c0.9,1,2.1,1.5,3.7,1.5
		c1.7,0,3.4-0.4,5.1-1.3l0.4,2C294.2,198.1,292.3,198.6,290.2,198.6z M292.7,185.2c-0.7-0.9-1.7-1.3-3-1.3s-2.3,0.4-3.1,1.3
		s-1.3,2.1-1.4,3.6h8.5C293.8,187.3,293.4,186,292.7,185.2z"/>
	<path class="st4" d="M299.6,198.3v-16.1h2.1l0.3,2.3c0.6-0.8,1.4-1.4,2.4-1.9c1-0.5,2-0.7,3.1-0.7c1.9,0,3.2,0.5,4.1,1.6
		c0.9,1,1.3,2.6,1.3,4.8v10h-2.4c0-6.4,0-9.9,0-10.4c0-1.4-0.3-2.4-0.8-3c-0.5-0.6-1.4-1-2.6-1c-1.3,0-2.3,0.3-3.1,0.9
		s-1.4,1.4-1.6,2.4c-0.1,0.7-0.1,1.4-0.1,2.3v8.8H299.6z"/>
	<path class="st4" d="M322.1,198.6c-1.6,0-2.7-0.4-3.4-1.2s-1-2-1.1-3.7V184h-2.4l0.1-1.6l2.3-0.2l0.8-3.7l1.6-0.1v3.7h4.5v1.8h-4.5
		v9.2c0,1.2,0.2,2.1,0.6,2.6s1,0.7,1.9,0.7c0.3,0,1-0.1,2.1-0.2l0.1,1.9C323.6,198.5,322.7,198.6,322.1,198.6z"/>
	<path class="st4" d="M332.2,198.6c-1.1,0-2.1-0.1-3-0.4c-0.9-0.2-1.7-0.5-2.2-0.9l0.3-2.1c1.6,0.9,3.2,1.3,4.8,1.3
		c2.4,0,3.6-0.8,3.7-2.5c0-0.7-0.3-1.3-0.8-1.7s-1.5-0.9-3-1.4l-1.2-0.4c-1.4-0.5-2.4-1-3-1.7c-0.6-0.7-0.9-1.6-0.9-2.6
		c0-1.3,0.5-2.3,1.5-3.1c1-0.8,2.4-1.2,4.2-1.2c1.8,0,3.5,0.4,5,1.1l-0.7,1.9c-1.5-0.6-2.9-0.9-4.2-0.9c-1,0-1.8,0.2-2.4,0.6
		c-0.6,0.4-0.9,1-0.9,1.7c0,0.6,0.2,1.1,0.6,1.4s1.3,0.7,2.5,1.1c0.3,0.1,0.7,0.3,1.2,0.4c1.6,0.5,2.8,1.2,3.4,1.9
		c0.7,0.7,1,1.7,1,2.9c0,1.5-0.6,2.6-1.6,3.4C335.4,198.2,334,198.6,332.2,198.6z"/>
	<path class="st4" d="M358.8,198.3c-0.1-0.6-0.3-1.3-0.4-2c-0.9,0.9-1.7,1.5-2.5,1.8s-1.7,0.5-2.8,0.5c-1.5,0-2.7-0.4-3.6-1.2
		s-1.4-1.9-1.4-3.4c0-1.6,0.6-2.9,1.9-3.6c1.2-0.8,3-1.3,5.4-1.5c0.3,0,0.8-0.1,1.5-0.1c0.6-0.1,1.1-0.1,1.5-0.1v-1.4
		c0-1.1-0.3-2-0.8-2.5s-1.4-0.8-2.5-0.8c-1.6,0-3.2,0.4-4.8,1.2c0-0.1-0.2-0.5-0.4-1c-0.2-0.6-0.3-0.9-0.3-0.9
		c0.7-0.4,1.6-0.7,2.5-1c1-0.2,2-0.4,3-0.4c2,0,3.4,0.4,4.3,1.3c0.9,0.9,1.3,2.4,1.3,4.5v10.6H358.8z M353.5,196.6
		c1.2,0,2.2-0.3,3.1-1s1.5-1.5,1.7-2.6v-2.7c0,0-0.3,0-0.9,0.1c-0.5,0-0.9,0.1-1.1,0.1c-2.1,0.2-3.6,0.5-4.4,1
		c-0.8,0.5-1.3,1.3-1.3,2.4c0,0.9,0.3,1.5,0.8,1.9S352.6,196.6,353.5,196.6z"/>
	<path class="st4" d="M364.9,198.3v-16.1h2.1l0.3,2.3c0.6-0.8,1.4-1.4,2.4-1.9c1-0.5,2-0.7,3.1-0.7c1.9,0,3.2,0.5,4.1,1.6
		c0.9,1,1.3,2.6,1.3,4.8v10h-2.4c0-6.4,0-9.9,0-10.4c0-1.4-0.3-2.4-0.8-3c-0.5-0.6-1.4-1-2.6-1c-1.3,0-2.3,0.3-3.1,0.9
		s-1.4,1.4-1.6,2.4c-0.1,0.7-0.1,1.4-0.1,2.3v8.8H364.9z"/>
	<path class="st4" d="M393.3,196c-0.5,0.8-1.2,1.5-2.1,1.9s-1.9,0.7-2.9,0.7c-2.1,0-3.8-0.8-5-2.3c-1.2-1.5-1.8-3.6-1.8-6.2
		c0-2.5,0.6-4.5,1.8-6s2.9-2.3,4.9-2.3c1.1,0,2.1,0.2,3,0.7c0.9,0.5,1.6,1.1,2.1,1.9l0-1.4V176l2.4-0.1v22.5h-2.1L393.3,196z
		 M388.5,196.5c1.6,0,2.8-0.5,3.6-1.6c0.8-1,1.2-2.5,1.2-4.4c0-2.2-0.4-3.8-1.1-4.9c-0.8-1.1-2-1.6-3.7-1.6c-0.8,0-1.4,0.2-2,0.5
		s-1,0.8-1.4,1.3s-0.6,1.2-0.8,2c-0.2,0.7-0.3,1.6-0.3,2.5c0,1.3,0.2,2.3,0.5,3.3c0.3,0.9,0.8,1.7,1.5,2.2S387.5,196.5,388.5,196.5z
		"/>
	<path class="st4" d="M407.5,194.7c2.3,1.1,4.7,1.7,7.3,1.7c3.2,0,4.8-1.4,4.8-4.3c0-0.9-0.3-1.7-0.8-2.3c-0.5-0.6-1.4-1-2.7-1.4
		l-4.3-1.1c-3.3-0.8-4.9-2.6-4.9-5.3c0-2.1,0.7-3.6,2.1-4.6c1.4-1,3.4-1.5,5.9-1.5c1.3,0,2.5,0.1,3.7,0.4s2.1,0.7,2.9,1.1l-0.7,2.1
		c-0.7-0.4-1.5-0.7-2.6-1s-2.2-0.4-3.3-0.4c-3.5,0-5.3,1.2-5.3,3.7c0,0.8,0.3,1.5,0.8,2c0.5,0.5,1.4,0.9,2.4,1.2l4.1,1
		c1.8,0.4,3.1,1.1,4,2c0.9,0.9,1.4,2.2,1.4,3.9c0,2.2-0.7,3.9-2,5c-1.4,1.1-3.2,1.7-5.5,1.7c-1.7,0-3.3-0.2-4.6-0.5
		c-1.4-0.4-2.4-0.8-3.2-1.3L407.5,194.7z"/>
	<path class="st4" d="M432.7,198.3h-2.5v-19.4h-6.7v-2.2h15.9v2.2h-6.7V198.3z"/>
	<path class="st4" d="M458.1,198.3h-2.9l-3-6.8c-0.8-1.8-1.3-2.9-1.6-3.3c-0.7,0-1.6,0.1-2.5,0.1l-3.9-0.1v10.1h-2.6v-21.9h6.9
		c0.8,0,1.5,0,2.1,0.1s1.2,0.1,1.8,0.2c0.6,0.1,1.1,0.2,1.6,0.4c0.4,0.2,0.9,0.4,1.3,0.7c0.4,0.3,0.7,0.6,0.9,1s0.4,0.9,0.6,1.4
		c0.1,0.6,0.2,1.2,0.2,1.9c0,1.4-0.4,2.5-1.1,3.5c-0.7,1-1.7,1.7-3.1,2.1c0,0,0.1,0.2,0.3,0.5s0.4,0.7,0.7,1.2
		c0.3,0.5,0.5,0.9,0.6,1.2L458.1,198.3z M444.2,178.6v7.3c0.4,0,1.2,0,2.5,0s2.2,0,2.9,0c1.9,0,3.2-0.3,3.9-0.9
		c0.7-0.6,1.1-1.6,1.1-3c0-1.2-0.4-2.1-1.1-2.6s-1.9-0.9-3.5-0.9H444.2z"/>
	<path class="st4" d="M461.6,198.3v-21.7H474l-0.1,2.2h-9.8v7.1h9.3v2.2h-9.3v7.9h10.1l-0.1,2.2H461.6z"/>
	<path class="st4" d="M495.5,198.3h-2.9l-11.3-17.1l-0.7-1c0.1,2.1,0.1,3.9,0.1,5.5v12.6h-2.4v-21.7h2.8l11.3,17.1l0.7,1
		c-0.1-3.1-0.1-4.9-0.1-5.4v-12.7h2.4V198.3z"/>
	<path class="st4" d="M510,198.6c-1.7,0-3.1-0.3-4.4-0.8c-1.3-0.6-2.4-1.3-3.3-2.3c-0.9-1-1.5-2.2-2-3.5c-0.5-1.4-0.7-2.8-0.7-4.5
		c0-2.2,0.4-4.1,1.2-5.8s2.1-3,3.7-4s3.6-1.5,5.8-1.5c2.5,0,4.7,0.6,6.6,1.7l-1,2.1c-1.8-1-3.7-1.6-5.6-1.6c-1.3,0-2.5,0.2-3.5,0.7
		c-1,0.5-1.9,1.1-2.5,1.9c-0.7,0.8-1.2,1.8-1.5,2.8c-0.3,1.1-0.5,2.3-0.5,3.6c0,2.8,0.7,4.9,2.1,6.5c1.4,1.6,3.4,2.4,6.1,2.4
		c1.5,0,3.1-0.3,4.6-0.9v-6.2H510l0.1-2.2h7.4v9.9c-1.2,0.6-2.4,1-3.6,1.3C512.8,198.5,511.5,198.6,510,198.6z"/>
	<path class="st4" d="M528.7,198.3h-2.5v-19.4h-6.7v-2.2h15.9v2.2h-6.7V198.3z"/>
	<path class="st4" d="M554.8,198.3h-2.5v-10.1h-11.6v10.1h-2.5v-21.7h2.5v9.3h11.6v-9.3h2.5V198.3z"/>
	<path class="st4" d="M559.5,194.7c2.3,1.1,4.7,1.7,7.3,1.7c3.2,0,4.8-1.4,4.8-4.3c0-0.9-0.3-1.7-0.8-2.3c-0.5-0.6-1.4-1-2.7-1.4
		l-4.3-1.1c-3.3-0.8-4.9-2.6-4.9-5.3c0-2.1,0.7-3.6,2.1-4.6c1.4-1,3.4-1.5,5.9-1.5c1.3,0,2.5,0.1,3.7,0.4s2.1,0.7,2.9,1.1l-0.7,2.1
		c-0.7-0.4-1.5-0.7-2.6-1s-2.2-0.4-3.3-0.4c-3.5,0-5.3,1.2-5.3,3.7c0,0.8,0.3,1.5,0.8,2c0.5,0.5,1.4,0.9,2.4,1.2l4.1,1
		c1.8,0.4,3.1,1.1,4,2c0.9,0.9,1.4,2.2,1.4,3.9c0,2.2-0.7,3.9-2,5c-1.4,1.1-3.2,1.7-5.5,1.7c-1.7,0-3.3-0.2-4.6-0.5
		c-1.4-0.4-2.4-0.8-3.2-1.3L559.5,194.7z"/>
	<path class="st4" d="M585.6,197.9c-0.3-0.4-0.5-0.8-0.5-1.4s0.2-1,0.5-1.4c0.3-0.4,0.8-0.6,1.4-0.6c0.6,0,1.1,0.2,1.4,0.6
		s0.5,0.8,0.5,1.4s-0.2,1-0.5,1.4s-0.8,0.6-1.4,0.6C586.5,198.5,586,198.3,585.6,197.9z M588.5,176.4v2.1l-0.8,13.5h-1.2l-0.9-13.5
		v-2.1H588.5z"/>
</g>
<g>
	<path class="st5" d="M82.3,296.8c-2.6,0-4.9-0.6-7-1.8l1-3.1c0.9,0.5,1.9,0.9,3,1.2s2.1,0.5,3.2,0.5c1.3,0,2.2-0.3,2.9-0.8
		c0.6-0.5,1-1.3,1-2.3c0-1.3-0.9-2.3-2.7-2.8c-0.1,0-0.5-0.1-1.1-0.3c-0.6-0.2-1.1-0.3-1.6-0.5c-0.5-0.2-0.9-0.3-1.1-0.4
		c-2.9-1-4.3-2.9-4.3-5.7c0-1.9,0.7-3.4,2.1-4.5s3.2-1.6,5.5-1.6c2.6,0,4.8,0.5,6.7,1.6l-1.2,2.9c-1.9-0.9-3.7-1.3-5.3-1.3
		c-1.2,0-2.1,0.2-2.7,0.6c-0.6,0.4-0.9,1.1-1,2.1c0,1.2,0.6,2,1.8,2.3c0.2,0.1,0.8,0.3,1.7,0.6s1.5,0.5,1.8,0.6
		c2,0.6,3.4,1.4,4.2,2.4s1.3,2.3,1.3,4c0,2-0.7,3.6-2.2,4.7C86.7,296.2,84.8,296.8,82.3,296.8z"/>
	<path class="st5" d="M97.9,296.5v-18.3h-6.3V275h16.5v3.2h-6.2v18.3H97.9z"/>
	<path class="st5" d="M110.3,296.5V275h8c1.1,0,2,0,2.8,0.1s1.6,0.3,2.3,0.5c0.7,0.3,1.3,0.6,1.7,1s0.8,1,1.1,1.7
		c0.3,0.7,0.4,1.5,0.4,2.5c0,2.9-1.3,4.7-3.9,5.6c0.5,0.6,1.2,1.7,2,3.3l3.2,6.6h-4.3l-2.5-5.6c-0.9-2-1.5-3.2-1.8-3.6
		c-0.2,0-0.7,0-1.7,0l-3.3,0v9.2H110.3z M118.6,284.4c1.5,0,2.6-0.3,3.3-0.8c0.7-0.5,1-1.4,1-2.6c0-1.1-0.3-1.8-1-2.3
		s-1.7-0.7-3.1-0.7h-4.6v6.5c0.1,0,0.9,0,2.2,0C117.7,284.4,118.4,284.4,118.6,284.4z"/>
	<path class="st5" d="M130.7,296.5V275h13l-0.2,3.1h-8.9v5.5h8.4v3.1h-8.4v6.5h9.2l-0.1,3.2H130.7z"/>
	<path class="st5" d="M147.5,296.5V275h4.2c0.8,1.2,2.3,3.6,4.6,7.2s3.8,5.8,4.3,6.6c0.1,0.2,0.4,0.6,0.8,1.1
		c0.4,0.5,0.6,0.9,0.8,1.1c-0.1-3.3-0.1-5.1-0.1-5.2V275h3.6v21.5h-4.3l-9.7-15.1l-0.7-1.2c0.1,2.6,0.1,4.4,0.1,5.4v10.8H147.5z"/>
	<path class="st5" d="M179.9,296.8c-3.3,0-5.8-1-7.7-3s-2.8-4.7-2.8-8.1c0-2.2,0.4-4.1,1.3-5.8c0.9-1.7,2.1-2.9,3.8-3.9
		s3.6-1.4,5.9-1.4c2.6,0,4.8,0.6,6.7,1.7l-1.3,3c-1.8-1-3.6-1.4-5.3-1.4c-2.2,0-3.9,0.7-5.1,2.1s-1.9,3.3-1.9,5.7
		c0,2.4,0.6,4.3,1.7,5.7s2.7,2.1,4.8,2.1c1.4,0,2.6-0.2,3.7-0.6v-5h-4.5l0-3.1h8.2v10.4c-1.3,0.5-2.6,1-3.8,1.2
		S181.3,296.8,179.9,296.8z"/>
	<path class="st5" d="M195.9,296.5v-18.3h-6.3V275h16.5v3.2h-6.2v18.3H195.9z"/>
	<path class="st5" d="M208.4,296.5V275h4v8.8h9.7V275h4v21.5h-4v-9.6h-9.7v9.6H208.4z"/>
	<path class="st5" d="M236.7,296.8c-2.6,0-4.9-0.6-7-1.8l1-3.1c0.9,0.5,1.9,0.9,3,1.2s2.1,0.5,3.2,0.5c1.3,0,2.2-0.3,2.9-0.8
		c0.6-0.5,1-1.3,1-2.3c0-1.3-0.9-2.3-2.7-2.8c-0.1,0-0.5-0.1-1.1-0.3c-0.6-0.2-1.1-0.3-1.6-0.5c-0.5-0.2-0.9-0.3-1.1-0.4
		c-2.9-1-4.3-2.9-4.3-5.7c0-1.9,0.7-3.4,2.1-4.5s3.2-1.6,5.5-1.6c2.6,0,4.8,0.5,6.7,1.6l-1.2,2.9c-1.9-0.9-3.7-1.3-5.3-1.3
		c-1.2,0-2.1,0.2-2.7,0.6c-0.6,0.4-0.9,1.1-1,2.1c0,1.2,0.6,2,1.8,2.3c0.2,0.1,0.8,0.3,1.7,0.6s1.5,0.5,1.8,0.6
		c2,0.6,3.4,1.4,4.2,2.4s1.3,2.3,1.3,4c0,2-0.7,3.6-2.2,4.7C241.1,296.2,239.2,296.8,236.7,296.8z"/>
</g>
<g>
	<path class="st5" d="M123.2,239v-8.5l-7.4-12.9h4.3l5.1,9.3l5.1-9.3h4.2l-7.4,12.9v8.6H123.2z"/>
	<path class="st5" d="M146.2,239.3c-3.2,0-5.8-1-7.7-2.9c-1.9-2-2.8-4.7-2.8-8.1c0-3.5,0.9-6.2,2.8-8.1s4.4-2.9,7.7-2.9
		s5.8,1,7.6,2.9c1.9,1.9,2.8,4.7,2.8,8.1c0,3.4-0.9,6.1-2.8,8.1S149.4,239.3,146.2,239.3z M141.5,234c1.1,1.4,2.6,2,4.7,2
		s3.6-0.7,4.7-2c1.1-1.4,1.6-3.3,1.6-5.7c0-2.5-0.5-4.4-1.6-5.8s-2.6-2.1-4.7-2.1c-2.1,0-3.7,0.7-4.7,2.1c-1.1,1.4-1.6,3.3-1.6,5.8
		C139.9,230.8,140.4,232.7,141.5,234z"/>
	<path class="st5" d="M168.8,239.3c-2.8,0-4.9-0.7-6.4-2.1c-1.5-1.4-2.2-3.4-2.2-5.9v-13.7h4v13.4c0,1.8,0.4,3.1,1.1,3.9
		s1.9,1.2,3.6,1.2c1.6,0,2.8-0.4,3.5-1.2c0.7-0.8,1.1-2.1,1.1-3.9v-13.4h4v13.8c0,2.5-0.7,4.5-2.2,5.9
		C173.8,238.6,171.6,239.3,168.8,239.3z"/>
	<path class="st5" d="M181.8,239v-21.5h8c1.1,0,2,0,2.8,0.1s1.6,0.3,2.3,0.5c0.7,0.3,1.3,0.6,1.7,1s0.8,1,1.1,1.7
		c0.3,0.7,0.4,1.5,0.4,2.5c0,2.9-1.3,4.7-3.9,5.6c0.5,0.6,1.2,1.7,2,3.3l3.2,6.6H195l-2.5-5.6c-0.9-2-1.5-3.2-1.8-3.6
		c-0.2,0-0.7,0-1.7,0l-3.3,0v9.2H181.8z M190.1,226.9c1.5,0,2.6-0.3,3.3-0.8c0.7-0.5,1-1.4,1-2.6c0-1.1-0.3-1.8-1-2.3
		s-1.7-0.7-3.1-0.7h-4.6v6.5c0.1,0,0.9,0,2.2,0C189.2,226.9,190,226.9,190.1,226.9z"/>
</g>
<g>
	<path class="st5" d="M114.4,169.5v-12.9h3.7c1.1,0,2.1,0.1,3,0.4s1.7,0.6,2.3,1.2s1.1,1.2,1.5,2s0.5,1.8,0.5,2.8
		c0,2.1-0.6,3.7-1.9,4.8s-3,1.7-5.2,1.7H114.4z M116.8,167.6h1.7c1.5,0,2.6-0.4,3.4-1.2s1.2-1.9,1.2-3.4c0-1.6-0.4-2.7-1.2-3.4
		s-2-1.1-3.6-1.1h-1.5V167.6z"/>
	<path class="st5" d="M127.8,169.5v-12.9h2.4v12.9H127.8z"/>
	<path class="st5" d="M136.6,169.7c-1.6,0-2.9-0.4-4.2-1.1l0.6-1.9c0.6,0.3,1.1,0.6,1.8,0.7s1.3,0.3,1.9,0.3c0.8,0,1.3-0.2,1.7-0.5
		s0.6-0.8,0.6-1.4c0-0.8-0.5-1.4-1.6-1.7c-0.1,0-0.3-0.1-0.6-0.2s-0.7-0.2-1-0.3s-0.5-0.2-0.7-0.2c-1.7-0.6-2.6-1.7-2.6-3.4
		c0-1.2,0.4-2.1,1.2-2.7s1.9-0.9,3.3-0.9c1.6,0,2.9,0.3,4,1l-0.7,1.7c-1.1-0.5-2.2-0.8-3.2-0.8c-0.7,0-1.2,0.1-1.6,0.4
		s-0.6,0.7-0.6,1.2c0,0.7,0.4,1.2,1.1,1.4c0.1,0.1,0.5,0.2,1,0.3s0.9,0.3,1.1,0.3c1.2,0.4,2,0.9,2.5,1.4s0.8,1.4,0.8,2.4
		c0,1.2-0.4,2.2-1.3,2.8S138.1,169.7,136.6,169.7z"/>
	<path class="st5" d="M149.1,169.7c-1.9,0-3.4-0.6-4.5-1.8s-1.7-2.8-1.7-4.9c0-2,0.6-3.6,1.7-4.8s2.7-1.8,4.5-1.8
		c1.5,0,2.8,0.3,3.8,1l-0.7,1.8c-1-0.6-2-0.9-3-0.9c-1.2,0-2.1,0.4-2.8,1.3s-1,2-1,3.4c0,1.5,0.3,2.6,1,3.5s1.6,1.2,2.8,1.2
		c1.1,0,2.1-0.3,3.2-0.8l0.3,1.9C151.8,169.4,150.5,169.7,149.1,169.7z"/>
	<path class="st5" d="M160.6,169.7c-1.9,0-3.5-0.6-4.6-1.8s-1.7-2.8-1.7-4.9c0-2.1,0.6-3.7,1.7-4.9s2.7-1.7,4.6-1.7s3.5,0.6,4.6,1.8
		s1.7,2.8,1.7,4.9c0,2.1-0.6,3.7-1.7,4.9S162.6,169.7,160.6,169.7z M157.8,166.5c0.6,0.8,1.6,1.2,2.8,1.2s2.2-0.4,2.8-1.2s1-2,1-3.4
		c0-1.5-0.3-2.7-1-3.5s-1.6-1.2-2.8-1.2c-1.2,0-2.2,0.4-2.8,1.2s-1,2-1,3.5C156.8,164.6,157.2,165.7,157.8,166.5z"/>
	<path class="st5" d="M172,169.5l-4.7-12.9h2.5l2.7,8c0.1,0.3,0.3,1.1,0.7,2.4c0-0.1,0.1-0.5,0.3-1.2s0.3-1.1,0.4-1.2
		c0.1-0.2,0.5-1.5,1.3-4s1.3-3.8,1.3-4h2.4l-4.6,12.9H172z"/>
	<path class="st5" d="M180.3,169.5v-12.9h7.8l-0.1,1.9h-5.3v3.3h5.1v1.9h-5.1v3.9h5.5l-0.1,1.9H180.3z"/>
	<path class="st5" d="M190.3,169.5v-12.9h4.8c0.7,0,1.2,0,1.7,0.1s0.9,0.2,1.4,0.3s0.8,0.4,1,0.6s0.5,0.6,0.6,1s0.2,0.9,0.2,1.5
		c0,1.7-0.8,2.8-2.3,3.4c0.3,0.4,0.7,1,1.2,2l1.9,4h-2.6l-1.5-3.4c-0.6-1.2-0.9-1.9-1.1-2.1c-0.1,0-0.4,0-1,0l-2,0v5.5H190.3z
		 M195.3,162.3c0.9,0,1.6-0.2,2-0.5s0.6-0.8,0.6-1.6c0-0.6-0.2-1.1-0.6-1.4s-1-0.4-1.9-0.4h-2.7v3.9c0.1,0,0.5,0,1.3,0
		S195.2,162.3,195.3,162.3z"/>
</g>
</svg>
