<svg xmlns="http://www.w3.org/2000/svg" viewBox="0 0 191.3 96.25"><defs><style>.cls-1,.cls-3{fill:#2e3192;}.cls-1{stroke:#2e3192;stroke-miterlimit:10;stroke-width:3px;}.cls-2{fill:#4d4d4d;}</style></defs><title>Asset 2</title><g id="Layer_2" data-name="Layer 2"><g id="Layer_1-2" data-name="Layer 1"><line class="cls-1" x1="27.93" y1="94.75" x2="156.5" y2="94.75"/><path class="cls-2" d="M.61,15a12.93,12.93,0,0,0,5.8,1.34q3.81,0,3.81-3.47a2.68,2.68,0,0,0-.6-1.82A4.29,4.29,0,0,0,7.42,10L4,9.09C1.34,8.43,0,7,0,4.88A4.21,4.21,0,0,1,1.72,1.2,8.05,8.05,0,0,1,6.42,0,12,12,0,0,1,9.36.34a8.17,8.17,0,0,1,2.3.91l-.59,1.66A9.12,9.12,0,0,0,9,2.13a10.5,10.5,0,0,0-2.61-.34q-4.24,0-4.25,2.94a2.08,2.08,0,0,0,.65,1.6,4.33,4.33,0,0,0,2,.92l3.3.8a6.57,6.57,0,0,1,3.2,1.61,4.34,4.34,0,0,1,1.09,3.15,4.87,4.87,0,0,1-1.63,4,6.73,6.73,0,0,1-4.41,1.34,14.38,14.38,0,0,1-3.71-.43A9.47,9.47,0,0,1,0,16.7Z"/><path class="cls-2" d="M20.73,17.87h-2V2.33H13.36V.54h12.7V2.33H20.73Z"/><path class="cls-2" d="M41.06,17.87H38.72l-2.39-5.44c-.65-1.46-1.06-2.34-1.24-2.63-.57,0-1.25.06-2,.06L30,9.76v8.11H27.88V.34h5.54c.64,0,1.21,0,1.7,0a12.26,12.26,0,0,1,1.47.17A5.69,5.69,0,0,1,37.86.9a4.34,4.34,0,0,1,1,.56,2.73,2.73,0,0,1,.76.83,4.24,4.24,0,0,1,.45,1.14,6.19,6.19,0,0,1,.16,1.49,4.64,4.64,0,0,1-.86,2.83,4.45,4.45,0,0,1-2.44,1.64l.23.42c.16.26.34.59.56,1s.38.71.5,1ZM30,2.16V8l2,0,2.33,0a4.93,4.93,0,0,0,3.11-.74A2.92,2.92,0,0,0,38.26,5a2.57,2.57,0,0,0-.84-2.11,4.52,4.52,0,0,0-2.83-.69Z"/><path class="cls-2" d="M43.89,17.87V.54h9.93l-.08,1.79H45.91V8h7.45V9.77H45.91v6.31H54l-.09,1.79Z"/><path class="cls-2" d="M71,17.87h-2.3l-9-13.64-.58-.81c.06,1.64.09,3.11.09,4.4V17.87h-1.9V.54h2.26l9,13.64.59.81c0-2.49-.08-3.94-.08-4.33V.54H71Z"/><path class="cls-2" d="M82.61,18.13a9.15,9.15,0,0,1-3.56-.66,6.88,6.88,0,0,1-2.6-1.85,8.26,8.26,0,0,1-1.57-2.82,11.06,11.06,0,0,1-.55-3.58,10.28,10.28,0,0,1,1-4.64,7.42,7.42,0,0,1,3-3.17A9,9,0,0,1,83,.25a10,10,0,0,1,5.25,1.36l-.78,1.67A8.85,8.85,0,0,0,83,2a7.07,7.07,0,0,0-2.83.54,5.5,5.5,0,0,0-2,1.51A6.91,6.91,0,0,0,76.9,6.36a9.59,9.59,0,0,0-.41,2.86,7.76,7.76,0,0,0,1.64,5.22A6.06,6.06,0,0,0,83,16.36a10.22,10.22,0,0,0,3.72-.74V10.68H82.62l.07-1.77h5.92v7.92a13.23,13.23,0,0,1-2.86,1A14.81,14.81,0,0,1,82.61,18.13Z"/><path class="cls-2" d="M97.58,17.87h-2V2.33H90.21V.54h12.7V2.33H97.58Z"/><path class="cls-2" d="M118.41,17.87h-2V9.76h-9.31v8.11h-2V.54h2V8h9.31V.54h2Z"/><path class="cls-2" d="M122.48,17.87V.54h9.94l-.08,1.79h-7.83V8H132V9.77h-7.44v6.31h8.09l-.1,1.79Z"/><path class="cls-2" d="M149.57,17.87h-2.3l-9-13.64-.59-.81c.07,1.64.1,3.11.1,4.4V17.87h-1.9V.54h2.26l9,13.64.6.81c0-2.49-.08-3.94-.08-4.33V.54h1.89Z"/><path class="cls-2" d="M155.77,17.87h-2V.54h2Z"/><path class="cls-2" d="M173.66,17.87h-2.3l-9-13.64-.58-.81c.06,1.64.09,3.11.09,4.4V17.87H160V.54h2.26l9,13.64.6.81c-.06-2.49-.09-3.94-.09-4.33V.54h1.89Z"/><path class="cls-2" d="M185.3,18.13a9.15,9.15,0,0,1-3.56-.66,6.88,6.88,0,0,1-2.6-1.85,8.43,8.43,0,0,1-1.57-2.82A11.34,11.34,0,0,1,177,9.22a10.42,10.42,0,0,1,1-4.64,7.42,7.42,0,0,1,3-3.17A9,9,0,0,1,185.65.25a10,10,0,0,1,5.25,1.36l-.77,1.67A8.92,8.92,0,0,0,185.67,2a7.07,7.07,0,0,0-2.83.54,5.5,5.5,0,0,0-2,1.51,6.89,6.89,0,0,0-1.2,2.28,9.28,9.28,0,0,0-.42,2.86,7.71,7.71,0,0,0,1.65,5.22,6,6,0,0,0,4.85,1.92,10.22,10.22,0,0,0,3.72-.74V10.68h-4.09l.07-1.77h5.92v7.92a13.23,13.23,0,0,1-2.86,1A14.75,14.75,0,0,1,185.3,18.13Z"/><path class="cls-3" d="M13.86,54.18a9.69,9.69,0,0,1-7.45-3c-1.84-2-2.76-4.7-2.76-8.17A11,11,0,0,1,6.53,35.1a10,10,0,0,1,7.54-3,11.14,11.14,0,0,1,6.37,1.75l-1.24,3a9.51,9.51,0,0,0-5-1.54,5.69,5.69,0,0,0-4.68,2.13,8.83,8.83,0,0,0-1.72,5.72,8.88,8.88,0,0,0,1.66,5.76,5.77,5.77,0,0,0,4.74,2,11.65,11.65,0,0,0,5.34-1.35l.53,3.1A11.87,11.87,0,0,1,13.86,54.18Z"/><path class="cls-3" d="M30.11,54.18a7.13,7.13,0,0,1-5.63-2.32,8.87,8.87,0,0,1-2.05-6.09,8.79,8.79,0,0,1,2.05-6.14,7.45,7.45,0,0,1,5.79-2.25,7.17,7.17,0,0,1,5.65,2.29,8.84,8.84,0,0,1,2,6.1A8.81,8.81,0,0,1,35.9,51.9,7.42,7.42,0,0,1,30.11,54.18Zm.1-2.92a3.31,3.31,0,0,0,2.93-1.42,7.05,7.05,0,0,0,1-4.07,7.08,7.08,0,0,0-1-4.09,3.38,3.38,0,0,0-3-1.4,3.34,3.34,0,0,0-2.93,1.41,7.11,7.11,0,0,0-1,4.1,7,7,0,0,0,1,4.05A3.38,3.38,0,0,0,30.21,51.26Z"/><path class="cls-3" d="M41.1,53.87V37.77h3.1l.44,2c.2-.24.38-.46.57-.65a5.88,5.88,0,0,1,.74-.64,5.49,5.49,0,0,1,1-.6,7.52,7.52,0,0,1,1.32-.39A8.12,8.12,0,0,1,50,37.38a5.47,5.47,0,0,1,3.07.77A4.55,4.55,0,0,1,54.65,40a5.72,5.72,0,0,1,2.24-1.92A6.84,6.84,0,0,1,60,37.38,5,5,0,0,1,64,38.94a7.14,7.14,0,0,1,1.3,4.65V53.87H61.46V44.73a8.32,8.32,0,0,0-.52-3.41,2,2,0,0,0-2-1,3.33,3.33,0,0,0-3.22,2,7.24,7.24,0,0,0-.56,2.15v9.42H51.33V44.55a7,7,0,0,0-.57-3.2,2.13,2.13,0,0,0-2.06-1.06,3.59,3.59,0,0,0-2.1.62,3.88,3.88,0,0,0-1.33,1.61,16.4,16.4,0,0,0-.34,3.54v7.81Z"/><path class="cls-3" d="M69.09,53.87V37.77h3.1l.44,2c.2-.24.39-.46.57-.65a6.07,6.07,0,0,1,.75-.64,4.9,4.9,0,0,1,1-.6,7.14,7.14,0,0,1,1.31-.39A8.26,8.26,0,0,1,78,37.38a5.47,5.47,0,0,1,3.07.77A4.41,4.41,0,0,1,82.64,40a5.72,5.72,0,0,1,2.24-1.92,6.87,6.87,0,0,1,3.06-.67A5,5,0,0,1,92,38.94a7.2,7.2,0,0,1,1.29,4.65V53.87H89.45V44.73a8.15,8.15,0,0,0-.52-3.41,2,2,0,0,0-2-1,3.34,3.34,0,0,0-3.23,2,7,7,0,0,0-.55,2.15v9.42H79.33V44.55a7,7,0,0,0-.57-3.2,2.13,2.13,0,0,0-2.07-1.06,3.54,3.54,0,0,0-2.09.62,3.9,3.9,0,0,0-1.34,1.61,16.46,16.46,0,0,0-.33,3.54v7.81Z"/><path class="cls-3" d="M108.7,52.6a7.73,7.73,0,0,1-5.06,1.58,7.66,7.66,0,0,1-5-1.57A5.58,5.58,0,0,1,96.69,48V37.77h3.85v10.1a3.72,3.72,0,0,0,.75,2.6,3.15,3.15,0,0,0,2.4.81,3.08,3.08,0,0,0,2.35-.8,3.79,3.79,0,0,0,.74-2.61V37.77h3.84V48A5.59,5.59,0,0,1,108.7,52.6Z"/><path class="cls-3" d="M114.12,53.87V37.77h3.09l.42,2a7.64,7.64,0,0,1,5.47-2.43A5.26,5.26,0,0,1,127.31,39a7,7,0,0,1,1.4,4.69V53.87h-3.85V44.16a5.63,5.63,0,0,0-.63-2.92,2.43,2.43,0,0,0-2.22-1,4.24,4.24,0,0,0-2.27.63,3.94,3.94,0,0,0-1.51,1.61A16.59,16.59,0,0,0,118,46v7.84Z"/><path class="cls-3" d="M132.58,35.43V32.15h3.85v3.28Zm0,18.44V37.77h3.83v16.1Z"/><path class="cls-3" d="M146.84,54.09a8.22,8.22,0,0,1-2.73-.39,3.5,3.5,0,0,1-1.71-1.22,5.2,5.2,0,0,1-.87-2,13.11,13.11,0,0,1-.25-2.81V40.1h-2.64l.15-2.08,2.75-.25,1.23-4.36,2.34,0v4.38h4V40.1h-4v7.68a4.79,4.79,0,0,0,.53,2.6,2.19,2.19,0,0,0,2,.78,11.57,11.57,0,0,0,1.79-.15l.1,2.76-.36.06-.63.12c-.2,0-.46.07-.77.1S147.12,54.09,146.84,54.09Z"/><path class="cls-3" d="M152.26,35.43V32.15h3.86v3.28Zm0,18.44V37.77h3.84v16.1Z"/><path class="cls-3" d="M167.54,54.18a8,8,0,0,1-6-2.23,8.52,8.52,0,0,1-2.16-6.18,8.85,8.85,0,0,1,2-6.11,7.15,7.15,0,0,1,5.56-2.28,6.53,6.53,0,0,1,5.16,2.08A8,8,0,0,1,173.93,45c0,.17,0,.43,0,.81s0,.64,0,.82h-10.7a5.05,5.05,0,0,0,1.23,3.49,4.3,4.3,0,0,0,3.25,1.24A10.15,10.15,0,0,0,172.76,50l.54,2.72A10.7,10.7,0,0,1,167.54,54.18Zm-4.26-10h7a4.57,4.57,0,0,0-.89-3,3.08,3.08,0,0,0-2.48-1.05,3.39,3.39,0,0,0-2.5,1A4.68,4.68,0,0,0,163.28,44.19Z"/><path class="cls-3" d="M182.19,54.16a11.54,11.54,0,0,1-5.7-1.21l.4-2.89a11.83,11.83,0,0,0,2.46.95,10,10,0,0,0,2.72.41,3.55,3.55,0,0,0,2-.47,1.61,1.61,0,0,0,.72-1.4,1.54,1.54,0,0,0-.66-1.32,13,13,0,0,0-2.55-1.2l-.83-.31a8.63,8.63,0,0,1-3.21-1.92,4.1,4.1,0,0,1-1-2.88,3.92,3.92,0,0,1,1.59-3.37,7.36,7.36,0,0,1,4.43-1.17A12.06,12.06,0,0,1,188,38.53l-1,2.66a10.27,10.27,0,0,0-4.38-1.07,3.66,3.66,0,0,0-1.81.38,1.3,1.3,0,0,0-.65,1.18,1.33,1.33,0,0,0,.63,1.17,13.63,13.63,0,0,0,2.46,1.09l.38.13.5.19a8.16,8.16,0,0,1,3.25,1.93,4.1,4.1,0,0,1,1,2.92,4.57,4.57,0,0,1-1.64,3.74A7.19,7.19,0,0,1,182.19,54.16Z"/></g></g></svg>