<?xml version="1.0" encoding="utf-8"?>
<!-- Generator: Adobe Illustrator 22.1.0, SVG Export Plug-In . SVG Version: 6.00 Build 0)  -->
<svg version="1.1" id="Layer_1" xmlns="http://www.w3.org/2000/svg" xmlns:xlink="http://www.w3.org/1999/xlink" x="0px" y="0px"
	 viewBox="0 0 640 426" style="enable-background:new 0 0 640 426;" xml:space="preserve">
<style type="text/css">
	.st0{fill:#4D4D4D;}
	.st1{fill:#2E3192;}
</style>
<g>
	<path class="st0" d="M192.3,113.5v6.8h7.8v-6.8h2.1v16.2h-2.1v-7.6h-7.8v7.6h-2.1v-16.2H192.3z"/>
	<path class="st0" d="M214.2,122.1h-6.3v5.8h7v1.8h-9.1v-16.2h8.7v1.8h-6.6v5.1h6.3V122.1z"/>
	<path class="st0" d="M217.6,113.5h2.1V128h6.9v1.8h-9V113.5z"/>
	<path class="st0" d="M229,113.7c1-0.2,2.3-0.3,4-0.3c2.1,0,3.6,0.5,4.5,1.3c0.9,0.8,1.4,1.9,1.4,3.4c0,1.5-0.4,2.6-1.2,3.5
		c-1.1,1.2-2.9,1.8-4.9,1.8c-0.6,0-1.2,0-1.7-0.1v6.5H229V113.7z M231.1,121.5c0.5,0.1,1,0.2,1.7,0.2c2.5,0,4.1-1.2,4.1-3.5
		c0-2.1-1.5-3.2-3.8-3.2c-0.9,0-1.6,0.1-2,0.2V121.5z"/>
	<path class="st0" d="M244.1,129.7h-2v-17.3h2V129.7z"/>
	<path class="st0" d="M262,129.7h-2.3l-9-13.6l-0.6-0.8c0.1,1.6,0.1,3.1,0.1,4.4v10.1h-1.9v-17.3h2.3l9,13.6l0.6,0.8
		c-0.1-2.5-0.1-3.9-0.1-4.3v-10.1h1.9V129.7z"/>
	<path class="st0" d="M273.6,130c-1.3,0-2.5-0.2-3.6-0.7s-1.9-1.1-2.6-1.9s-1.2-1.7-1.6-2.8s-0.5-2.3-0.5-3.6c0-1.8,0.3-3.3,1-4.6
		s1.7-2.4,3-3.2s2.9-1.2,4.7-1.2c2,0,3.7,0.5,5.3,1.4l-0.8,1.7c-1.5-0.8-2.9-1.3-4.5-1.3c-1.1,0-2,0.2-2.8,0.5s-1.5,0.9-2,1.5
		s-0.9,1.4-1.2,2.3s-0.4,1.8-0.4,2.9c0,2.2,0.5,3.9,1.6,5.2s2.7,1.9,4.9,1.9c1.2,0,2.5-0.2,3.7-0.7v-4.9h-4.1l0.1-1.8h5.9v7.9
		c-1,0.5-1.9,0.8-2.9,1S274.8,130,273.6,130z"/>
	<path class="st1" d="M163.6,165.7v-21.5h4.2c0.8,1.2,2.3,3.6,4.6,7.2s3.8,5.8,4.3,6.6c0.1,0.2,0.4,0.6,0.8,1.1s0.6,0.9,0.8,1.1
		c-0.1-3.3-0.1-5.1-0.1-5.2v-10.9h3.6v21.5h-4.3l-9.7-15.1l-0.7-1.2c0.1,2.6,0.1,4.4,0.1,5.4v10.8H163.6z"/>
	<path class="st1" d="M193.4,166c-2.6,0-4.6-0.7-6-2.2s-2.2-3.5-2.2-6.2c0-2.6,0.7-4.6,2-6.1s3.2-2.3,5.6-2.3c2.2,0,3.9,0.7,5.2,2.1
		s1.8,3.2,1.8,5.5c0,0.2,0,0.4,0,0.8s0,0.6,0,0.8h-10.7c0,1.5,0.5,2.7,1.2,3.5s1.9,1.2,3.2,1.2c1.8,0,3.4-0.5,5.1-1.4l0.5,2.7
		C197.5,165.5,195.6,166,193.4,166z M189.1,156h7c0-1.3-0.3-2.3-0.9-3s-1.4-1.1-2.5-1.1c-1,0-1.8,0.3-2.5,1S189.2,154.7,189.1,156z"
		/>
	<path class="st1" d="M203,147.3V144h3.9v3.3H203z M203,165.7v-16.1h3.8v16.1H203z"/>
	<path class="st1" d="M214,172.9l-0.2-3.1h1.9c2.3,0,3.8-0.3,4.7-0.9c0.9-0.6,1.3-1.7,1.3-3.3c0-0.7,0-1.4-0.1-2.1
		c-0.3,0.4-0.5,0.6-0.7,0.9c-0.2,0.2-0.5,0.5-0.9,0.7s-0.8,0.4-1.2,0.5s-1,0.2-1.6,0.2c-2.1,0-3.9-0.8-5.3-2.3s-2.1-3.5-2.1-5.9
		c0-1.3,0.2-2.5,0.6-3.5c0.4-1.1,0.9-1.9,1.6-2.6s1.4-1.2,2.3-1.6c0.9-0.4,1.8-0.5,2.7-0.5c2.2,0,3.8,0.8,4.8,2.4l0.3-2h3.4v15
		c0,0.8,0,1.5-0.1,2.2s-0.2,1.3-0.4,1.8s-0.5,1.1-0.8,1.5s-0.7,0.8-1.2,1.2s-1,0.7-1.7,0.9s-1.4,0.4-2.3,0.5s-1.8,0.2-2.9,0.2H214z
		 M217.9,163c2.6,0,4-1.8,4-5.3v-0.6c0-1.6-0.4-2.8-1-3.7s-1.6-1.3-2.8-1.3c-1.4,0-2.5,0.5-3.2,1.4s-1.1,2.3-1.1,3.9
		c0,1.6,0.4,2.9,1.1,4S216.6,163,217.9,163z"/>
	<path class="st1" d="M229.4,165.7v-22l3.8-0.2v4.6c0,0.2,0,0.8,0,1.9c0,1,0,1.5,0,1.6c1.3-1.5,3-2.3,5.2-2.3c1.8,0,3.2,0.5,4.2,1.5
		c1,1,1.5,2.6,1.5,4.8v10.2h-3.8V156c0-1.3-0.2-2.3-0.6-2.9s-1.1-0.9-2.1-0.9c-0.9,0-1.6,0.2-2.3,0.7s-1.2,1-1.5,1.7
		c-0.2,0.9-0.4,2.1-0.4,3.5v7.7H229.4z"/>
	<path class="st1" d="M256.4,166c-1.1,0-2.1-0.2-3-0.7c-0.9-0.5-1.5-1-1.9-1.6l-0.4,2.1h-3.3v-22l3.8-0.2v5c0,1,0,2.1-0.1,3.3
		c1.3-1.7,2.9-2.5,5-2.5c2.1,0,3.7,0.8,4.8,2.3s1.8,3.5,1.8,6c0,2.6-0.6,4.6-1.8,6.2C260,165.2,258.4,166,256.4,166z M255.4,163.1
		c1.1,0,2.1-0.5,2.7-1.5s1-2.3,1-4.1c0-1.8-0.3-3.1-1-4.1s-1.6-1.4-2.7-1.4c-2.6,0-3.9,1.8-3.9,5.3c0,2,0.3,3.4,1,4.4
		S254.2,163.1,255.4,163.1z"/>
	<path class="st1" d="M273.1,166c-2.4,0-4.3-0.8-5.6-2.3s-2.1-3.6-2.1-6.1c0-2.6,0.7-4.6,2.1-6.1c1.4-1.5,3.3-2.2,5.8-2.2
		c2.4,0,4.3,0.8,5.6,2.3s2,3.6,2,6.1c0,2.6-0.7,4.6-2.1,6.1C277.5,165.3,275.6,166,273.1,166z M273.2,163.1c1.3,0,2.3-0.5,2.9-1.4
		s1-2.3,1-4.1c0-1.8-0.3-3.1-1-4.1s-1.6-1.4-3-1.4c-1.3,0-2.3,0.5-2.9,1.4s-1,2.3-1,4.1c0,1.8,0.3,3.1,1,4.1
		S271.9,163.1,273.2,163.1z"/>
	<path class="st1" d="M284.1,165.7v-16.1h3.2l0.5,2.5c1.1-1.7,2.6-2.5,4.6-2.5c0.4,0,0.8,0,1,0.1l-0.1,3.2c-0.4-0.1-0.8-0.1-1.2-0.1
		c-1.4,0-2.5,0.4-3.2,1.1s-1,1.8-1,3.1v8.7H284.1z"/>
	<path class="st1" d="M300.9,166c-2.4,0-4.3-0.4-5.7-1.2l0.4-2.9c0.6,0.4,1.5,0.7,2.5,0.9c1,0.3,1.9,0.4,2.7,0.4
		c0.8,0,1.5-0.2,2-0.5s0.7-0.8,0.7-1.4c0-0.6-0.2-1-0.7-1.3s-1.3-0.7-2.5-1.2c-0.4-0.2-0.7-0.3-0.8-0.3c-1.5-0.6-2.6-1.2-3.2-1.9
		s-1-1.7-1-2.9c0-1.5,0.5-2.6,1.6-3.4s2.5-1.2,4.4-1.2c2.1,0,3.9,0.4,5.4,1.2l-1,2.7c-1.5-0.7-3-1.1-4.4-1.1c-0.8,0-1.4,0.1-1.8,0.4
		c-0.4,0.3-0.7,0.7-0.7,1.2c0,0.5,0.2,0.9,0.6,1.2c0.4,0.3,1.2,0.6,2.5,1.1c0,0,0.2,0.1,0.4,0.1s0.4,0.1,0.5,0.2
		c1.5,0.5,2.6,1.2,3.3,1.9c0.7,0.7,1,1.7,1,2.9c0,1.6-0.6,2.9-1.6,3.7S302.9,166,300.9,166z"/>
	<path class="st0" d="M233.1,194.8c-0.8,0-1.6-0.1-2.3-0.3s-1.4-0.5-1.9-0.9s-1-0.9-1.4-1.6s-0.5-1.4-0.5-2.3c0-0.5,0.1-1,0.2-1.4
		s0.3-0.8,0.6-1.1s0.5-0.6,0.9-1s0.7-0.6,1.1-0.8s0.7-0.5,1.2-0.7c-0.3-0.4-0.6-0.6-0.7-0.9s-0.4-0.5-0.6-0.8s-0.4-0.7-0.5-1
		s-0.1-0.7-0.1-1c0-0.9,0.2-1.6,0.6-2.2s1-1,1.6-1.3s1.4-0.4,2.2-0.4c0.6,0,1.1,0.1,1.7,0.2s1,0.4,1.5,0.7s0.8,0.7,1.1,1.2
		s0.4,1,0.4,1.7c0,0.5-0.1,1-0.3,1.5s-0.5,0.9-0.9,1.2s-0.8,0.7-1.2,0.9s-0.9,0.5-1.4,0.8l4.1,4.5c0.6-0.7,1.2-1.6,1.8-2.7l2,1.3
		c-0.6,1.2-1.3,2.2-2.1,3.1l2.4,2.6c-0.1,0-0.5,0.1-1.2,0.3s-1.2,0.3-1.2,0.3l-1.7-1.7C236.9,194.2,235.1,194.8,233.1,194.8z
		 M233.2,192.6c0.7,0,1.3-0.1,2-0.3s1.2-0.5,1.7-0.9c-0.1-0.2-0.9-1-2.3-2.5s-2.1-2.3-2.3-2.5c-0.3,0.2-0.6,0.3-0.8,0.5
		s-0.4,0.3-0.7,0.5s-0.4,0.4-0.6,0.6s-0.3,0.4-0.4,0.7s-0.1,0.6-0.1,0.9c0,1,0.3,1.7,1,2.3S232.2,192.6,233.2,192.6z M233,183.7
		c0.4-0.2,0.7-0.4,0.9-0.5s0.5-0.4,0.8-0.6s0.5-0.5,0.6-0.8s0.2-0.6,0.2-0.9c0-0.6-0.2-1-0.5-1.3s-0.8-0.4-1.4-0.4
		c-0.6,0-1.1,0.2-1.4,0.5s-0.5,0.8-0.5,1.4C231.6,181.8,232.1,182.7,233,183.7z"/>
	<path class="st0" d="M139.5,220.5c1.8,0.9,3.7,1.3,5.8,1.3c2.5,0,3.8-1.2,3.8-3.5c0-0.8-0.2-1.4-0.6-1.8s-1.1-0.8-2.2-1.1l-3.4-0.9
		c-2.6-0.7-3.9-2.1-3.9-4.2c0-1.6,0.6-2.9,1.7-3.7s2.7-1.2,4.7-1.2c1,0,2,0.1,2.9,0.3s1.7,0.5,2.3,0.9l-0.6,1.7
		c-0.5-0.3-1.2-0.5-2.1-0.8s-1.7-0.3-2.6-0.3c-2.8,0-4.2,1-4.2,2.9c0,0.7,0.2,1.2,0.7,1.6s1.1,0.7,2,0.9l3.3,0.8
		c1.4,0.3,2.5,0.9,3.2,1.6s1.1,1.8,1.1,3.1c0,1.8-0.5,3.1-1.6,4s-2.6,1.3-4.4,1.3c-1.4,0-2.6-0.1-3.7-0.4s-1.9-0.6-2.6-1
		L139.5,220.5z"/>
	<path class="st0" d="M159.6,223.3h-2v-15.5h-5.3V206h12.7v1.8h-5.3V223.3z"/>
	<path class="st0" d="M179.9,223.3h-2.3l-2.4-5.4c-0.6-1.5-1.1-2.3-1.2-2.6c-0.6,0-1.2,0.1-2,0.1l-3.1-0.1v8.1h-2.1v-17.5h5.5
		c0.6,0,1.2,0,1.7,0s1,0.1,1.5,0.2s0.9,0.2,1.3,0.3s0.7,0.3,1,0.6s0.6,0.5,0.8,0.8s0.3,0.7,0.5,1.1s0.2,0.9,0.2,1.5
		c0,1.1-0.3,2-0.9,2.8s-1.4,1.3-2.4,1.6c0,0,0.1,0.2,0.2,0.4s0.3,0.6,0.6,1s0.4,0.7,0.5,1L179.9,223.3z M168.8,207.6v5.9
		c0.3,0,1,0,2,0s1.8,0,2.3,0c1.5,0,2.5-0.2,3.1-0.7s0.9-1.3,0.9-2.4c0-0.9-0.3-1.6-0.8-2.1s-1.5-0.7-2.8-0.7H168.8z"/>
	<path class="st0" d="M182.8,223.3V206h9.9l-0.1,1.8h-7.8v5.7h7.4v1.8h-7.4v6.3h8.1l-0.1,1.8H182.8z"/>
	<path class="st0" d="M209.8,223.3h-2.3l-9-13.6l-0.6-0.8c0.1,1.6,0.1,3.1,0.1,4.4v10.1h-1.9V206h2.3l9,13.6l0.6,0.8
		c-0.1-2.5-0.1-3.9-0.1-4.3V206h1.9V223.3z"/>
	<path class="st0" d="M221.5,223.6c-1.3,0-2.5-0.2-3.6-0.7s-1.9-1.1-2.6-1.9s-1.2-1.7-1.6-2.8s-0.5-2.3-0.5-3.6c0-1.8,0.3-3.3,1-4.6
		s1.7-2.4,3-3.2s2.9-1.2,4.7-1.2c2,0,3.7,0.5,5.3,1.4l-0.8,1.7c-1.5-0.8-2.9-1.3-4.5-1.3c-1.1,0-2,0.2-2.8,0.5s-1.5,0.9-2,1.5
		s-0.9,1.4-1.2,2.3s-0.4,1.8-0.4,2.9c0,2.2,0.5,3.9,1.6,5.2s2.7,1.9,4.9,1.9c1.2,0,2.5-0.2,3.7-0.7v-4.9h-4.1l0.1-1.8h5.9v7.9
		c-1,0.5-1.9,0.8-2.9,1S222.7,223.6,221.5,223.6z"/>
	<path class="st0" d="M236.5,223.3h-2v-15.5h-5.3V206h12.7v1.8h-5.3V223.3z"/>
	<path class="st0" d="M257.3,223.3h-2v-8.1H246v8.1h-2V206h2v7.4h9.3V206h2V223.3z"/>
	<path class="st0" d="M261.4,223.3V206h9.9l-0.1,1.8h-7.8v5.7h7.4v1.8h-7.4v6.3h8.1l-0.1,1.8H261.4z"/>
	<path class="st0" d="M288.4,223.3h-2.3l-9-13.6l-0.6-0.8c0.1,1.6,0.1,3.1,0.1,4.4v10.1h-1.9V206h2.3l9,13.6l0.6,0.8
		c-0.1-2.5-0.1-3.9-0.1-4.3V206h1.9V223.3z"/>
	<path class="st0" d="M294.6,223.3h-2V206h2V223.3z"/>
	<path class="st0" d="M312.5,223.3h-2.3l-9-13.6l-0.6-0.8c0.1,1.6,0.1,3.1,0.1,4.4v10.1h-1.9V206h2.3l9,13.6l0.6,0.8
		c-0.1-2.5-0.1-3.9-0.1-4.3V206h1.9V223.3z"/>
	<path class="st0" d="M324.2,223.6c-1.3,0-2.5-0.2-3.6-0.7c-1.1-0.4-1.9-1.1-2.6-1.9s-1.2-1.7-1.6-2.8s-0.5-2.3-0.5-3.6
		c0-1.8,0.3-3.3,1-4.6s1.7-2.4,3-3.2c1.3-0.8,2.9-1.2,4.7-1.2c2,0,3.7,0.5,5.3,1.4l-0.8,1.7c-1.5-0.8-2.9-1.3-4.5-1.3
		c-1.1,0-2,0.2-2.8,0.5c-0.8,0.4-1.5,0.9-2,1.5s-0.9,1.4-1.2,2.3s-0.4,1.8-0.4,2.9c0,2.2,0.5,3.9,1.6,5.2s2.7,1.9,4.9,1.9
		c1.2,0,2.5-0.2,3.7-0.7v-4.9h-4.1l0.1-1.8h5.9v7.9c-1,0.5-1.9,0.8-2.9,1S325.4,223.6,324.2,223.6z"/>
	<path class="st1" d="M152.7,259.6c-3.1,0-5.6-1-7.5-3s-2.8-4.7-2.8-8.2c0-3.3,1-5.9,2.9-7.9s4.4-3,7.5-3c2.5,0,4.6,0.6,6.4,1.7
		l-1.2,3c-1.7-1-3.3-1.5-5-1.5c-2,0-3.5,0.7-4.7,2.1c-1.1,1.4-1.7,3.3-1.7,5.7c0,2.5,0.6,4.4,1.7,5.8s2.7,2,4.7,2
		c1.8,0,3.6-0.4,5.3-1.3l0.5,3.1C157.3,259.1,155.2,259.6,152.7,259.6z"/>
	<path class="st1" d="M169,259.6c-2.4,0-4.3-0.8-5.6-2.3s-2.1-3.6-2.1-6.1c0-2.6,0.7-4.6,2.1-6.1c1.4-1.5,3.3-2.2,5.8-2.2
		c2.4,0,4.3,0.8,5.6,2.3s2,3.6,2,6.1c0,2.6-0.7,4.6-2.1,6.1C173.4,258.9,171.5,259.6,169,259.6z M169.1,256.7c1.3,0,2.3-0.5,2.9-1.4
		s1-2.3,1-4.1c0-1.8-0.3-3.1-1-4.1s-1.6-1.4-3-1.4c-1.3,0-2.3,0.5-2.9,1.4s-1,2.3-1,4.1c0,1.8,0.3,3.1,1,4.1
		S167.8,256.7,169.1,256.7z"/>
	<path class="st1" d="M180,259.3v-16.1h3.1l0.4,2.1c0.2-0.2,0.4-0.5,0.6-0.7c0.2-0.2,0.4-0.4,0.7-0.6s0.7-0.4,1-0.6s0.8-0.3,1.3-0.4
		s1.1-0.2,1.7-0.2c1.3,0,2.3,0.3,3.1,0.8s1.3,1.1,1.6,1.8c0.6-0.8,1.3-1.5,2.2-1.9s1.9-0.7,3.1-0.7c1.8,0,3.2,0.5,4.1,1.6
		s1.3,2.6,1.3,4.6v10.3h-3.9v-9.1c0-1.6-0.2-2.7-0.5-3.4c-0.3-0.7-1-1-2-1c-1.5,0-2.6,0.7-3.2,2c-0.3,0.6-0.5,1.3-0.6,2.2v9.4h-3.8
		V250c0-1.4-0.2-2.5-0.6-3.2s-1.1-1.1-2.1-1.1c-0.8,0-1.5,0.2-2.1,0.6s-1,0.9-1.3,1.6c-0.2,1-0.3,2.2-0.3,3.5v7.8H180z"/>
	<path class="st1" d="M208,259.3v-16.1h3.1l0.4,2.1c0.2-0.2,0.4-0.5,0.6-0.7c0.2-0.2,0.4-0.4,0.7-0.6s0.7-0.4,1-0.6s0.8-0.3,1.3-0.4
		s1.1-0.2,1.7-0.2c1.3,0,2.3,0.3,3.1,0.8s1.3,1.1,1.6,1.8c0.6-0.8,1.3-1.5,2.2-1.9s1.9-0.7,3.1-0.7c1.8,0,3.2,0.5,4.1,1.6
		s1.3,2.6,1.3,4.6v10.3h-3.9v-9.1c0-1.6-0.2-2.7-0.5-3.4c-0.3-0.7-1-1-2-1c-1.5,0-2.6,0.7-3.2,2c-0.3,0.6-0.5,1.3-0.6,2.2v9.4h-3.8
		V250c0-1.4-0.2-2.5-0.6-3.2s-1.1-1.1-2.1-1.1c-0.8,0-1.5,0.2-2.1,0.6s-1,0.9-1.3,1.6c-0.2,1-0.3,2.2-0.3,3.5v7.8H208z"/>
	<path class="st1" d="M247.6,258.1c-1.3,1.1-3,1.6-5.1,1.6s-3.8-0.5-5-1.6s-1.9-2.6-1.9-4.6v-10.2h3.9v10.1c0,1.2,0.3,2.1,0.8,2.6
		s1.3,0.8,2.4,0.8c1.1,0,1.9-0.3,2.4-0.8s0.7-1.4,0.7-2.6v-10.1h3.8v10.2C249.5,255.5,248.9,257,247.6,258.1z"/>
	<path class="st1" d="M253,259.3v-16.1h3.1l0.4,2c1.6-1.6,3.5-2.4,5.5-2.4c1.9,0,3.3,0.5,4.2,1.6s1.4,2.6,1.4,4.7v10.2h-3.9v-9.7
		c0-1.3-0.2-2.3-0.6-2.9s-1.1-1-2.2-1c-0.8,0-1.6,0.2-2.3,0.6c-0.7,0.4-1.2,1-1.5,1.6c-0.2,0.8-0.3,1.9-0.3,3.5v7.8H253z"/>
	<path class="st1" d="M271.5,240.9v-3.3h3.9v3.3H271.5z M271.5,259.3v-16.1h3.8v16.1H271.5z"/>
	<path class="st1" d="M285.7,259.5c-1.1,0-2-0.1-2.7-0.4c-0.7-0.3-1.3-0.7-1.7-1.2s-0.7-1.2-0.9-2s-0.3-1.7-0.3-2.8v-7.6h-2.6
		l0.1-2.1l2.8-0.2l1.2-4.4l2.3,0v4.4h4v2.3h-4v7.7c0,1.2,0.2,2.1,0.5,2.6s1,0.8,1.9,0.8c0.6,0,1.2,0,1.8-0.1l0.1,2.8
		c0,0-0.1,0-0.4,0.1c-0.2,0-0.4,0.1-0.6,0.1c-0.2,0-0.5,0.1-0.8,0.1S286,259.5,285.7,259.5z"/>
	<path class="st1" d="M291.1,240.9v-3.3h3.9v3.3H291.1z M291.1,259.3v-16.1h3.8v16.1H291.1z"/>
	<path class="st1" d="M306.4,259.6c-2.6,0-4.6-0.7-6-2.2c-1.4-1.5-2.2-3.5-2.2-6.2c0-2.6,0.7-4.6,2-6.1s3.2-2.3,5.6-2.3
		c2.2,0,3.9,0.7,5.2,2.1s1.8,3.2,1.8,5.5c0,0.2,0,0.4,0,0.8c0,0.4,0,0.6,0,0.8h-10.7c0,1.5,0.5,2.7,1.2,3.5s1.9,1.2,3.2,1.2
		c1.8,0,3.4-0.5,5.1-1.4l0.5,2.7C310.6,259.1,308.6,259.6,306.4,259.6z M302.2,249.6h7c0-1.3-0.3-2.3-0.9-3s-1.4-1.1-2.5-1.1
		c-1,0-1.8,0.3-2.5,1S302.3,248.3,302.2,249.6z"/>
	<path class="st1" d="M321.1,259.6c-2.4,0-4.3-0.4-5.7-1.2l0.4-2.9c0.6,0.4,1.5,0.7,2.5,0.9c1,0.3,1.9,0.4,2.7,0.4
		c0.8,0,1.5-0.2,2-0.5s0.7-0.8,0.7-1.4c0-0.6-0.2-1-0.7-1.3s-1.3-0.7-2.5-1.2c-0.4-0.2-0.7-0.3-0.8-0.3c-1.5-0.6-2.6-1.2-3.2-1.9
		s-1-1.7-1-2.9c0-1.5,0.5-2.6,1.6-3.4s2.5-1.2,4.4-1.2c2.1,0,3.9,0.4,5.4,1.2l-1,2.7c-1.5-0.7-3-1.1-4.4-1.1c-0.8,0-1.4,0.1-1.8,0.4
		c-0.4,0.3-0.7,0.7-0.7,1.2c0,0.5,0.2,0.9,0.6,1.2c0.4,0.3,1.2,0.6,2.5,1.1c0,0,0.2,0.1,0.4,0.1s0.4,0.1,0.5,0.2
		c1.5,0.5,2.6,1.2,3.3,1.9c0.7,0.7,1,1.7,1,2.9c0,1.6-0.6,2.9-1.6,3.7S323.1,259.6,321.1,259.6z"/>
</g>
</svg>
