<svg xmlns="http://www.w3.org/2000/svg" viewBox="0 0 143.6 99.21"><defs><style>.cls-1,.cls-3{fill:#2e3192;}.cls-1{stroke:#2e3192;stroke-miterlimit:10;stroke-width:3px;}.cls-2{fill:#4d4d4d;}</style></defs><title>Asset 1</title><g id="Layer_2" data-name="Layer 2"><g id="Layer_1-2" data-name="Layer 1"><line class="cls-1" x1="6.59" y1="1.5" x2="135.16" y2="1.5"/><path class="cls-2" d="M28.71,39.83V46.6h7.83V39.83h2.11V56H36.54V48.42H28.71V56H26.63V39.83Z"/><path class="cls-2" d="M50.65,48.42H44.36v5.83h7V56h-9.1V39.83H51v1.75H44.36v5.11h6.29Z"/><path class="cls-2" d="M54.08,39.83h2.09V54.25h6.91V56h-9Z"/><path class="cls-2" d="M65.41,40a24.06,24.06,0,0,1,4-.31A6.66,6.66,0,0,1,74,41.05a4.36,4.36,0,0,1,1.42,3.39,4.74,4.74,0,0,1-1.25,3.45,6.67,6.67,0,0,1-4.94,1.78,7.17,7.17,0,0,1-1.68-.14V56H65.41Zm2.09,7.8a7,7,0,0,0,1.73.17c2.52,0,4-1.22,4-3.46s-1.51-3.16-3.82-3.16a9.21,9.21,0,0,0-2,.16Z"/><path class="cls-2" d="M80.51,56h-2V38.67h2Z"/><path class="cls-2" d="M98.41,56h-2.3l-9-13.64-.59-.81c.07,1.64.1,3.1.1,4.39V56h-1.9V38.67H87l9,13.65.6.8c0-2.49-.08-3.93-.08-4.32V38.67h1.89Z"/><path class="cls-2" d="M110,56.26a9.1,9.1,0,0,1-3.55-.66,6.88,6.88,0,0,1-2.6-1.85,8.07,8.07,0,0,1-1.57-2.82,11,11,0,0,1-.55-3.57,10.25,10.25,0,0,1,1-4.64,7.44,7.44,0,0,1,3-3.18,9.06,9.06,0,0,1,4.67-1.16,10,10,0,0,1,5.25,1.36l-.78,1.68a8.8,8.8,0,0,0-4.45-1.26,6.87,6.87,0,0,0-2.83.55,5.39,5.39,0,0,0-2,1.51,6.77,6.77,0,0,0-1.21,2.27,9.66,9.66,0,0,0-.41,2.87,7.79,7.79,0,0,0,1.64,5.22,6.06,6.06,0,0,0,4.86,1.92,10.22,10.22,0,0,0,3.72-.74V48.81h-4.09l.07-1.77H116V55a13,13,0,0,1-2.85,1A15,15,0,0,1,110,56.26Z"/><path class="cls-3" d="M0,92V70.55H4.22q1.14,1.78,4.64,7.2l4.27,6.6c.14.22.39.6.75,1.13s.61.91.75,1.14c-.06-3.35-.1-5.09-.1-5.22V70.55h3.62V92H13.87L4.19,76.92l-.7-1.16c.07,2.58.11,4.39.11,5.44V92Z"/><path class="cls-3" d="M29.84,92.31a8,8,0,0,1-6-2.23,8.51,8.51,0,0,1-2.16-6.17,8.79,8.79,0,0,1,2-6.11,7.11,7.11,0,0,1,5.55-2.29,6.57,6.57,0,0,1,5.17,2.08,8.08,8.08,0,0,1,1.84,5.53c0,.16,0,.43,0,.8s0,.65,0,.82H25.5a5.07,5.07,0,0,0,1.24,3.5A4.3,4.3,0,0,0,30,89.47a10.21,10.21,0,0,0,5.06-1.37l.55,2.72A10.72,10.72,0,0,1,29.84,92.31Zm-4.26-10h7a4.51,4.51,0,0,0-.9-3,3,3,0,0,0-2.47-1.06,3.36,3.36,0,0,0-2.5,1A4.6,4.6,0,0,0,25.58,82.32Z"/><path class="cls-3" d="M39.43,73.56V70.28h3.86v3.28Zm0,18.45V75.91h3.84V92Z"/><path class="cls-3" d="M50.49,99.21l-.22-3.1h1.95c2.26,0,3.83-.3,4.73-.9A3.69,3.69,0,0,0,58.3,91.9c0-.65,0-1.36-.09-2.12a6.94,6.94,0,0,1-.72.87,5,5,0,0,1-.87.68,3.67,3.67,0,0,1-1.24.51,7.41,7.41,0,0,1-1.65.17,6.74,6.74,0,0,1-5.25-2.3,8.59,8.59,0,0,1-2.06-5.94A10.4,10.4,0,0,1,47,80.25a7.27,7.27,0,0,1,1.55-2.61,6.84,6.84,0,0,1,2.27-1.58,6.93,6.93,0,0,1,2.73-.55,5.42,5.42,0,0,1,4.82,2.36l.26-2h3.43v15A17.43,17.43,0,0,1,61.93,93a8.71,8.71,0,0,1-.41,1.85,5.48,5.48,0,0,1-.77,1.55,5.41,5.41,0,0,1-1.19,1.2,6.27,6.27,0,0,1-1.69.88,11.75,11.75,0,0,1-2.26.53,21.16,21.16,0,0,1-2.9.18Zm3.86-9.88c2.64,0,4-1.78,4-5.32v-.56a6.2,6.2,0,0,0-1-3.69,3.32,3.32,0,0,0-2.82-1.32,3.75,3.75,0,0,0-3.2,1.45,6.31,6.31,0,0,0-1.08,3.88,6.82,6.82,0,0,0,1.09,4A3.46,3.46,0,0,0,54.35,89.33Z"/><path class="cls-3" d="M65.83,92V70l3.84-.25v4.64c0,.22,0,.85,0,1.87s0,1.54,0,1.56a6.38,6.38,0,0,1,5.16-2.29,5.54,5.54,0,0,1,4.18,1.55,6.63,6.63,0,0,1,1.49,4.75V92H76.57V82.24a5.22,5.22,0,0,0-.63-2.9,2.4,2.4,0,0,0-2.14-.93,4.07,4.07,0,0,0-2.29.66A4.12,4.12,0,0,0,70,80.74a14.6,14.6,0,0,0-.35,3.52V92Z"/><path class="cls-3" d="M92.81,92.31a6.22,6.22,0,0,1-3-.72,5.14,5.14,0,0,1-1.94-1.65l-.38,2H84.18V70L88,69.73v5c0,1,0,2.06-.09,3.29a6,6,0,0,1,5-2.49,5.74,5.74,0,0,1,4.83,2.29,9.58,9.58,0,0,1,1.75,6A9.9,9.9,0,0,1,97.67,90,5.82,5.82,0,0,1,92.81,92.31Zm-.92-2.91A3.19,3.19,0,0,0,94.63,88a7.1,7.1,0,0,0,1-4.12,6.82,6.82,0,0,0-1-4,3.18,3.18,0,0,0-2.72-1.38c-2.59,0-3.91,1.75-3.94,5.26A7.69,7.69,0,0,0,89,88,3.34,3.34,0,0,0,91.89,89.4Z"/><path class="cls-3" d="M109.53,92.31A7.14,7.14,0,0,1,103.9,90a8.82,8.82,0,0,1-2.05-6.09,8.77,8.77,0,0,1,2.05-6.15,7.45,7.45,0,0,1,5.79-2.25,7.16,7.16,0,0,1,5.64,2.3,8.78,8.78,0,0,1,2,6.1A8.78,8.78,0,0,1,115.31,90,7.38,7.38,0,0,1,109.53,92.31Zm.1-2.91A3.33,3.33,0,0,0,112.56,88a7.18,7.18,0,0,0,1-4.07,7.16,7.16,0,0,0-1-4.09,3.78,3.78,0,0,0-5.9,0,7.08,7.08,0,0,0-1,4.09,7.05,7.05,0,0,0,1,4.06A3.37,3.37,0,0,0,109.63,89.4Z"/><path class="cls-3" d="M120.53,92V75.91h3.22l.5,2.46a5.08,5.08,0,0,1,4.58-2.54,7.22,7.22,0,0,1,1,.06l-.06,3.21a8,8,0,0,0-1.22-.09,4.14,4.14,0,0,0-3.17,1.13,4.43,4.43,0,0,0-1,3.14V92Z"/><path class="cls-3" d="M137.34,92.3a11.47,11.47,0,0,1-5.69-1.22L132,88.2a12.33,12.33,0,0,0,2.46.94,10.21,10.21,0,0,0,2.73.42,3.49,3.49,0,0,0,2-.48,1.6,1.6,0,0,0,.73-1.39,1.55,1.55,0,0,0-.67-1.32,11.5,11.5,0,0,0-2.54-1.2l-.84-.31a8.58,8.58,0,0,1-3.2-1.93,4.06,4.06,0,0,1-1-2.88,4,4,0,0,1,1.59-3.37,7.36,7.36,0,0,1,4.43-1.17,12,12,0,0,1,5.41,1.16l-.95,2.65a10.49,10.49,0,0,0-4.38-1.07,3.53,3.53,0,0,0-1.81.39,1.27,1.27,0,0,0-.65,1.18A1.3,1.3,0,0,0,136,81a13.46,13.46,0,0,0,2.46,1.1,2.67,2.67,0,0,1,.38.13l.5.19a8.23,8.23,0,0,1,3.25,1.92,4.15,4.15,0,0,1,1,2.93A4.58,4.58,0,0,1,142,91,7.16,7.16,0,0,1,137.34,92.3Z"/></g></g></svg>