<svg id="Layer_1_HOME" data-name="Layer 1_HOME" xmlns="http://www.w3.org/2000/svg" viewBox="0 0 905.26 36.57"><defs><style>.cls-1{fill:#fff;}</style></defs><title>purpose</title><path class="cls-1" d="M49,641.85v-27h5v11H66v-11h5v27H66v-12H54v12H49Z" transform="translate(-49 -614.28)"/><path class="cls-1" d="M85.45,642.14A9.89,9.89,0,0,1,78,639.38a10.49,10.49,0,0,1-2.66-7.61,10.87,10.87,0,0,1,2.51-7.53,8.79,8.79,0,0,1,6.85-2.82A8.06,8.06,0,0,1,91.06,624a9.91,9.91,0,0,1,2.27,6.81c0,0.21,0,.56,0,1s0,1,0,1H80.1a5.92,5.92,0,0,0,1.53,4.28,5.25,5.25,0,0,0,4,1.51,12.53,12.53,0,0,0,6.25-1.7l0.67,3.36A13.23,13.23,0,0,1,85.45,642.14Zm-5.26-12.29h8.67c0-2-.37-2.87-1.1-3.74a3.79,3.79,0,0,0-3.05-1.31,4.18,4.18,0,0,0-3.08,1.28A5.11,5.11,0,0,0,80.19,629.85Z" transform="translate(-49 -614.28)"/><path class="cls-1" d="M104.13,642a10.22,10.22,0,0,1-3.39-.48A4.39,4.39,0,0,1,98.62,640a6.48,6.48,0,0,1-1.2-2.49,16.81,16.81,0,0,1-.42-3.59V614.59l5-.31v19.57a7.18,7.18,0,0,0,.61,3.62,2.73,2.73,0,0,0,2.45.95,16.73,16.73,0,0,0,2.29-.2l0.12,3.38-0.44.09-0.81.15-1,.13A10.56,10.56,0,0,1,104.13,642Z" transform="translate(-49 -614.28)"/><path class="cls-1" d="M110,650V621.85h3.88l0.51,2.81a6.67,6.67,0,0,1,2.59-2.42,7.57,7.57,0,0,1,3.6-.85,7.07,7.07,0,0,1,4.29,1.36,8.4,8.4,0,0,1,2.81,3.7,13.86,13.86,0,0,1,1,5.29,12,12,0,0,1-2.23,7.51,7.22,7.22,0,0,1-6,2.9,7.62,7.62,0,0,1-3.41-.75,6.66,6.66,0,0,1-2.33-2,26.16,26.16,0,0,0,.37,2.93v7.5Zm9.36-11.49a3.84,3.84,0,0,0,3.33-1.77,8.87,8.87,0,0,0,1.22-5.06,8.48,8.48,0,0,0-1.23-5,4,4,0,0,0-3.41-1.68q-4.7,0-4.75,6.4,0,3.69,1.22,5.41A4.15,4.15,0,0,0,119.36,638.53Z" transform="translate(-49 -614.28)"/><path class="cls-1" d="M133,618.85v-4h4v4h-4Zm0,23v-20h4v20h-4Z" transform="translate(-49 -614.28)"/><path class="cls-1" d="M142,641.85v-20h4.09l0.52,2.54a9.38,9.38,0,0,1,6.74-3,6.2,6.2,0,0,1,5.06,2c1.15,1.33,1.59,3.27,1.59,5.8v12.65h-4V629.78a6.62,6.62,0,0,0-1-3.6,3.2,3.2,0,0,0-2.85-1.19,5.45,5.45,0,0,0-2.87.79,4.87,4.87,0,0,0-1.89,2,19.43,19.43,0,0,0-.38,4.34v9.76h-5Z" transform="translate(-49 -614.28)"/><path class="cls-1" d="M168.91,650.85l-0.27-4H171c2.78,0,4.73-.39,5.84-1.13s1.66-2.11,1.66-4.08c0-.81,0-1.68-0.11-2.62a8.87,8.87,0,0,1-.89,1.07,6.46,6.46,0,0,1-1.07.84,4.77,4.77,0,0,1-1.54.62,9,9,0,0,1-2,.21,8.3,8.3,0,0,1-6.48-2.84,10.56,10.56,0,0,1-2.54-7.32,12.77,12.77,0,0,1,.7-4.34,9,9,0,0,1,1.92-3.22,8.41,8.41,0,0,1,6.16-2.62,6.65,6.65,0,0,1,5.94,2.88l0.33-2.45H183v18.5a23.46,23.46,0,0,1-.06,2.67,11.77,11.77,0,0,1-.46,2.28,6.47,6.47,0,0,1-2.39,3.39,7.66,7.66,0,0,1-2.08,1.09,14.2,14.2,0,0,1-2.79.75,24.66,24.66,0,0,1-3.57.33h-2.73Zm4.94-12.4c3.26,0,5.14-2.19,5.14-6.56v-0.69a7.53,7.53,0,0,0-1.42-4.55A4.3,4.3,0,0,0,174,625a4.71,4.71,0,0,0-4,1.78,7.81,7.81,0,0,0-1.36,4.8,8.47,8.47,0,0,0,1.43,4.88A4.38,4.38,0,0,0,173.86,638.45Z" transform="translate(-49 -614.28)"/><path class="cls-1" d="M198,641.85v-27h5.26c0.94,2,2.85,4.65,5.73,9.11s4.63,7.28,5.26,8.24c0.18,0.28.49,0.8,0.93,1.45l0.94,1.43c-0.08-4.13-.11-6.25-0.11-6.4V614.85h4v27h-4.84L203.22,623.2l-1.12-1.45c0.1,3.18-.1,5.39-0.1,6.68v13.43h-4Z" transform="translate(-49 -614.28)"/><path class="cls-1" d="M234.85,642.14a9.89,9.89,0,0,1-7.45-2.76,10.49,10.49,0,0,1-2.66-7.61,10.87,10.87,0,0,1,2.51-7.53,8.79,8.79,0,0,1,6.85-2.82,8.06,8.06,0,0,1,6.37,2.57,9.91,9.91,0,0,1,2.27,6.81c0,0.21,0,.56,0,1s0,1,0,1H229.51a5.92,5.92,0,0,0,1.53,4.28,5.25,5.25,0,0,0,4,1.51,12.53,12.53,0,0,0,6.25-1.7L242,640.3A13.23,13.23,0,0,1,234.85,642.14Zm-5.26-12.29h8.67c0-2-.37-2.87-1.1-3.74a3.79,3.79,0,0,0-3.05-1.31,4.18,4.18,0,0,0-3.08,1.28A5.11,5.11,0,0,0,229.6,629.85Z" transform="translate(-49 -614.28)"/><path class="cls-1" d="M247,618.85v-4h4v4h-4Zm0,23v-20h4v20h-4Z" transform="translate(-49 -614.28)"/><path class="cls-1" d="M260.33,650.85l-0.27-4h2.4c2.78,0,4.73-.39,5.84-1.13s1.66-2.11,1.66-4.08c0-.81,0-1.68-0.11-2.62a8.87,8.87,0,0,1-.89,1.07,6.46,6.46,0,0,1-1.07.84,4.77,4.77,0,0,1-1.54.62,9,9,0,0,1-2,.21,8.3,8.3,0,0,1-6.48-2.84,10.56,10.56,0,0,1-2.54-7.32,12.77,12.77,0,0,1,.7-4.34,9,9,0,0,1,1.92-3.22,8.41,8.41,0,0,1,6.16-2.62A6.65,6.65,0,0,1,270,624.3l0.33-2.45H275v18.5a19.79,19.79,0,0,1-.35,2.67,12,12,0,0,1-.61,2.28,7.07,7.07,0,0,1-1,1.91,7.17,7.17,0,0,1-1.5,1.48,7.78,7.78,0,0,1-2.1,1.09,14.3,14.3,0,0,1-2.8.75,24.79,24.79,0,0,1-3.58.33h-2.73Zm4.74-12.4c3.26,0,4.94-2.19,4.94-6.56v-0.69a7.53,7.53,0,0,0-1.21-4.55,4.1,4.1,0,0,0-3.48-1.63,4.61,4.61,0,0,0-3.93,1.78,7.8,7.8,0,0,0-1.34,4.8,8.44,8.44,0,0,0,1.34,4.88A4.23,4.23,0,0,0,265.06,638.45Z" transform="translate(-49 -614.28)"/><path class="cls-1" d="M279,641.85V614.59l5-.31V620c0,0.28,0,1-.07,2.3s-0.06,1.9-.06,1.92a7.87,7.87,0,0,1,6.36-2.82,6.56,6.56,0,0,1,5,1.91c1.22,1.27,1.72,3.22,1.72,5.86v12.67h-5V629.71c0-1.63,0-2.82-.53-3.58A2.74,2.74,0,0,0,289,625a4.84,4.84,0,0,0-2.76.8,5,5,0,0,0-1.8,2.07,18,18,0,0,0-.39,4.34v9.65h-5Z" transform="translate(-49 -614.28)"/><path class="cls-1" d="M312.52,642.14a7.61,7.61,0,0,1-3.68-.89,6.32,6.32,0,0,1-2.39-2L306,641.85h-4V614.59l5-.31v6.14c0,1.19-.23,2.55-0.3,4.06a7.19,7.19,0,0,1,6-3.07,7,7,0,0,1,5.9,2.82,11.79,11.79,0,0,1,2.13,7.37,12.18,12.18,0,0,1-2.24,7.63A7.19,7.19,0,0,1,312.52,642.14Zm-1.14-3.6a3.94,3.94,0,0,0,3.38-1.79,8.71,8.71,0,0,0,1.26-5.08,8.45,8.45,0,0,0-1.24-5,3.93,3.93,0,0,0-3.35-1.7q-4.81,0-4.86,6.49a9.42,9.42,0,0,0,1.21,5.37A4.11,4.11,0,0,0,311.38,638.54Z" transform="translate(-49 -614.28)"/><path class="cls-1" d="M333.14,642.14a8.79,8.79,0,0,1-6.94-2.85,12.53,12.53,0,0,1,0-15.09,9.17,9.17,0,0,1,7.14-2.77,8.85,8.85,0,0,1,7,2.83,12.49,12.49,0,0,1,0,15.09A9.14,9.14,0,0,1,333.14,642.14Zm0.13-3.6a4.1,4.1,0,0,0,3.61-1.75,11.06,11.06,0,0,0,0-10.06,4.67,4.67,0,0,0-7.27,0,8.77,8.77,0,0,0-1.22,5,8.65,8.65,0,0,0,1.23,5A4.17,4.17,0,0,0,333.26,638.54Z" transform="translate(-49 -614.28)"/><path class="cls-1" d="M347,641.85v-20h3.68l0.61,3.06a6.26,6.26,0,0,1,5.65-3.11,8.86,8.86,0,0,1,1.26.08l-0.07,4a10.11,10.11,0,0,0-1.5-.11A5,5,0,0,0,351,631v10.86h-4Z" transform="translate(-49 -614.28)"/><path class="cls-1" d="M367.44,642.12a14.19,14.19,0,0,1-7-1.5l0.49-3.56a14.61,14.61,0,0,0,3,1.17,12.57,12.57,0,0,0,3.36.52,4.37,4.37,0,0,0,2.45-.59,2,2,0,0,0,.89-1.72,1.9,1.9,0,0,0-.82-1.63,15.33,15.33,0,0,0-3.13-1.48l-1-.38a10.58,10.58,0,0,1-4-2.38,5,5,0,0,1-1.21-3.55,4.85,4.85,0,0,1,2-4.16,9.06,9.06,0,0,1,5.46-1.45,14.81,14.81,0,0,1,6.67,1.43l-1.17,3.27a12.83,12.83,0,0,0-5.4-1.32,4.37,4.37,0,0,0-2.23.48,1.58,1.58,0,0,0-.8,1.45,1.63,1.63,0,0,0,.78,1.44,16.85,16.85,0,0,0,3,1.35l0.47,0.16,0.61,0.23a10.16,10.16,0,0,1,4,2.38,5.09,5.09,0,0,1,1.28,3.6,5.64,5.64,0,0,1-2,4.61A8.82,8.82,0,0,1,367.44,642.12Z" transform="translate(-49 -614.28)"/><path class="cls-1" d="M393.91,642.14a6.45,6.45,0,0,1-4.47-1.53,5.59,5.59,0,0,1-1.71-4.4,5.31,5.31,0,0,1,2-4.58,12.36,12.36,0,0,1,6.11-1.89l1.21-.14,1.55-.14c0.54,0,1.37-.09,1.37-0.13v-1a3.08,3.08,0,0,0-3.5-3.45,17.58,17.58,0,0,0-6,1.35s-0.22-.58-0.61-1.64-0.59-1.6-.6-1.63a19.07,19.07,0,0,1,7.59-1.5c2.67,0,4.85.58,6.07,1.74a7.58,7.58,0,0,1,2.06,5.65v13h-4s-0.14-.5-0.4-1.26-0.38-1.19-.38-1.23a11.05,11.05,0,0,1-2.9,2.11A8,8,0,0,1,393.91,642.14Zm1.28-3.36a5.52,5.52,0,0,0,3-.79c0.81-.52.84-1.16,1.84-1.91v-3.83l-1,.07-1,.07a10,10,0,0,0-4.23,1.08,2.92,2.92,0,0,0-1.35,2.67,2.5,2.5,0,0,0,.73,1.94A3,3,0,0,0,395.19,638.78Z" transform="translate(-49 -614.28)"/><path class="cls-1" d="M409,641.85v-20h4.12l0.52,2.54a9.38,9.38,0,0,1,6.74-3,6.18,6.18,0,0,1,5,2c1.15,1.33,1.58,3.27,1.58,5.8v12.65h-4V629.78a6.62,6.62,0,0,0-1-3.6,3.19,3.19,0,0,0-2.84-1.19,5.44,5.44,0,0,0-2.87.79,4.89,4.89,0,0,0-1.9,2,19.31,19.31,0,0,0-.39,4.34v9.76h-5Z" transform="translate(-49 -614.28)"/><path class="cls-1" d="M439.35,642.14a7.31,7.31,0,0,1-6.11-2.85,12.08,12.08,0,0,1-2.22-7.62,11.67,11.67,0,0,1,2.21-7.43,7.33,7.33,0,0,1,6.1-2.81c2.82,0,4.75,1,5.92,3-0.12-1.18-.25-2.32-0.25-3.41v-6.41l5-.31v27.57h-4.24l-0.52-2.76c-0.21.33-.39,0.58-0.57,0.82a6.06,6.06,0,0,1-.77.8,4.48,4.48,0,0,1-1.09.73,7.33,7.33,0,0,1-1.48.49A8.75,8.75,0,0,1,439.35,642.14Zm1.12-3.6q4.77,0,4.84-6.49,0-3.67-1.23-5.35a4.25,4.25,0,0,0-3.67-1.68,4,4,0,0,0-3.41,1.71,8.35,8.35,0,0,0-1.27,5,8.44,8.44,0,0,0,1.27,5A4.07,4.07,0,0,0,440.47,638.54Z" transform="translate(-49 -614.28)"/><path class="cls-1" d="M472.36,642.12a16.76,16.76,0,0,1-8.58-2.2L465,636a17.9,17.9,0,0,0,3.69,1.52,14,14,0,0,0,3.89.58,5.36,5.36,0,0,0,3.52-1,3.55,3.55,0,0,0,1.19-2.88q0-2.49-3.32-3.45l-1.32-.39-2-.61q-0.95-.3-1.36-0.46-5.33-1.88-5.33-7a6.57,6.57,0,0,1,2.56-5.55,10.9,10.9,0,0,1,6.78-2,16.46,16.46,0,0,1,8.26,2L480,620.37a16.16,16.16,0,0,0-6.58-1.59,5.81,5.81,0,0,0-3.3.77A3,3,0,0,0,469,622.1a2.77,2.77,0,0,0,2.19,2.87q0.43,0.16,2.13.7l2.2,0.71a11.72,11.72,0,0,1,5.19,3,7.21,7.21,0,0,1,1.56,4.93,6.86,6.86,0,0,1-2.67,5.81A11.63,11.63,0,0,1,472.36,642.12Z" transform="translate(-49 -614.28)"/><path class="cls-1" d="M493.89,642a10.15,10.15,0,0,1-3.37-.48,4.33,4.33,0,0,1-2.11-1.51,6.43,6.43,0,0,1-1.09-2.43,15.91,15.91,0,0,1-.33-3.46v-9.3h-3.23l0.18-2.6,3.4-.33,1.64-5.39,3,0v5.35h5v3h-5v9.39a6.13,6.13,0,0,0,.53,3.22,2.58,2.58,0,0,0,2.34,1,14.19,14.19,0,0,0,2.17-.18l0.11,3.4-0.45.08-0.78.14c-0.25,0-.56.08-1,0.12S494.23,642,493.89,642Z" transform="translate(-49 -614.28)"/><path class="cls-1" d="M500,641.85v-20h4.46l0.61,3.06a6.26,6.26,0,0,1,5.65-3.11,8.87,8.87,0,0,1,1.27.08l-0.07,4a10.12,10.12,0,0,0-1.5-.11,5.35,5.35,0,0,0-4,1.39A5.52,5.52,0,0,0,505,631v10.86h-5Z" transform="translate(-49 -614.28)"/><path class="cls-1" d="M523.88,642.14a9.88,9.88,0,0,1-7.45-2.76,10.49,10.49,0,0,1-2.67-7.61,10.87,10.87,0,0,1,2.51-7.53,8.79,8.79,0,0,1,6.85-2.82,8.05,8.05,0,0,1,6.37,2.57,9.92,9.92,0,0,1,2.27,6.81c0,0.21,0,.56,0,1s0,1,0,1H518.53a5.92,5.92,0,0,0,1.53,4.28,5.25,5.25,0,0,0,4,1.51,12.52,12.52,0,0,0,6.25-1.7L531,640.3A13.23,13.23,0,0,1,523.88,642.14Zm-5.26-12.29h8.67c0-2-.37-2.87-1.1-3.74a3.79,3.79,0,0,0-3.05-1.31,4.18,4.18,0,0,0-3.08,1.28A5.11,5.11,0,0,0,518.62,629.85Z" transform="translate(-49 -614.28)"/><path class="cls-1" d="M536,641.85v-20h3.42l0.52,2.54a9.38,9.38,0,0,1,6.74-3,7,7,0,0,1,5.39,2,8.67,8.67,0,0,1,1.92,5.8v12.65h-5V629.78a6.72,6.72,0,0,0-.85-3.6,3.05,3.05,0,0,0-2.77-1.19,5.82,5.82,0,0,0-4.86,2.76,17.83,17.83,0,0,0-.52,4.34v9.76h-4Z" transform="translate(-49 -614.28)"/><path class="cls-1" d="M562.24,650.85l-0.27-4h2.4c2.78,0,4.73-.39,5.83-1.13s1.66-2.11,1.66-4.08c0-.81,0-1.68-0.11-2.62a8.87,8.87,0,0,1-.89,1.07,6.5,6.5,0,0,1-1.07.84,4.77,4.77,0,0,1-1.54.62,9,9,0,0,1-2,.21,8.3,8.3,0,0,1-6.48-2.84,10.56,10.56,0,0,1-2.54-7.32,12.77,12.77,0,0,1,.7-4.34,9,9,0,0,1,1.92-3.22,8.41,8.41,0,0,1,6.16-2.62,6.65,6.65,0,0,1,5.94,2.88l0.33-2.45H576v18.5a26.55,26.55,0,0,1,.1,2.67,11.67,11.67,0,0,1-.38,2.28,6.23,6.23,0,0,1-2.33,3.39,7.6,7.6,0,0,1-2.07,1.09,14.15,14.15,0,0,1-2.78.75,24.57,24.57,0,0,1-3.57.33h-2.73Zm4.78-12.4c3.26,0,5-2.19,5-6.56v-0.69a7.53,7.53,0,0,0-1.26-4.55,4.15,4.15,0,0,0-3.5-1.63,4.63,4.63,0,0,0-3.95,1.78,7.8,7.8,0,0,0-1.34,4.8,8.45,8.45,0,0,0,1.36,4.88A4.26,4.26,0,0,0,567,638.45Z" transform="translate(-49 -614.28)"/><path class="cls-1" d="M589.08,642a10.15,10.15,0,0,1-3.37-.48,4.33,4.33,0,0,1-2.11-1.51,6.58,6.58,0,0,1-1.18-2.43,15.32,15.32,0,0,1-.43-3.46v-9.3h-3l0.18-2.6,3.4-.33,1.54-5.39,2.92,0v5.35h5v3h-5v9.39a6,6,0,0,0,.63,3.22,2.68,2.68,0,0,0,2.39,1,14.49,14.49,0,0,0,2.2-.18l0.12,3.4-0.44.08-0.78.14q-0.37.06-.95,0.12T589.08,642Z" transform="translate(-49 -614.28)"/><path class="cls-1" d="M596,641.85V614.59l4-.31V620a16.57,16.57,0,0,1,.14,2.3,14.8,14.8,0,0,0,0,1.92,8,8,0,0,1,6.41-2.82,7.32,7.32,0,0,1,5.36,1.91,8.22,8.22,0,0,1,2,5.86v12.67h-5V629.71a6.42,6.42,0,0,0-.83-3.58,3,3,0,0,0-2.66-1.14,5.08,5.08,0,0,0-2.83.8,5.66,5.66,0,0,0-2,2.07,16.56,16.56,0,0,0-.64,4.34v9.65h-4Z" transform="translate(-49 -614.28)"/><path class="cls-1" d="M627.47,642.14a9.88,9.88,0,0,1-7.45-2.76,10.49,10.49,0,0,1-2.67-7.61,10.87,10.87,0,0,1,2.51-7.53,8.79,8.79,0,0,1,6.85-2.82,8.05,8.05,0,0,1,6.37,2.57,9.92,9.92,0,0,1,2.27,6.81c0,0.21,0,.56,0,1s0,1,0,1H622.13a5.92,5.92,0,0,0,1.53,4.28,5.25,5.25,0,0,0,4,1.51,12.52,12.52,0,0,0,6.25-1.7l0.67,3.36A13.23,13.23,0,0,1,627.47,642.14Zm-5.26-12.29h8.67c0-2-.37-2.87-1.1-3.74a3.79,3.79,0,0,0-3.05-1.31,4.18,4.18,0,0,0-3.08,1.28A5.11,5.11,0,0,0,622.22,629.85Z" transform="translate(-49 -614.28)"/><path class="cls-1" d="M639,641.85v-20h4l0.52,2.54a9.38,9.38,0,0,1,6.74-3,6.29,6.29,0,0,1,5.1,2c1.15,1.33,1.63,3.27,1.63,5.8v12.65h-5V629.78a7,7,0,0,0-.56-3.6,2.78,2.78,0,0,0-2.62-1.19,5.06,5.06,0,0,0-2.75.79,4.61,4.61,0,0,0-1.79,2,20.86,20.86,0,0,0-.28,4.34v9.76h-5Z" transform="translate(-49 -614.28)"/><path class="cls-1" d="M662,618.85v-4h5v4h-5Zm0,23v-20h5v20h-5Z" transform="translate(-49 -614.28)"/><path class="cls-1" d="M672,641.85v-20h3.44l0.52,2.54a9.38,9.38,0,0,1,6.74-3,6.93,6.93,0,0,1,5.38,2,8.67,8.67,0,0,1,1.91,5.8v12.65h-5V629.78a6.73,6.73,0,0,0-.84-3.6A3,3,0,0,0,681.4,625a5.85,5.85,0,0,0-4.87,2.76,17.73,17.73,0,0,0-.53,4.34v9.76h-4Z" transform="translate(-49 -614.28)"/><path class="cls-1" d="M698.26,650.85l-0.27-4h2.4c2.78,0,4.73-.39,5.83-1.13s1.66-2.11,1.66-4.08c0-.81,0-1.68-0.11-2.62a8.87,8.87,0,0,1-.89,1.07,6.5,6.5,0,0,1-1.07.84,4.77,4.77,0,0,1-1.54.62,9,9,0,0,1-2,.21,8.3,8.3,0,0,1-6.48-2.84,10.56,10.56,0,0,1-2.54-7.32,12.77,12.77,0,0,1,.7-4.34,9,9,0,0,1,1.92-3.22,8.41,8.41,0,0,1,6.16-2.62A6.65,6.65,0,0,1,708,624.3l0.33-2.45H713v18.5a19.41,19.41,0,0,1-.39,2.67,12,12,0,0,1-.63,2.28,7.1,7.1,0,0,1-1,1.91,7.2,7.2,0,0,1-1.5,1.48,7.8,7.8,0,0,1-2.1,1.09,14.32,14.32,0,0,1-2.8.75,24.8,24.8,0,0,1-3.58.33h-2.73Zm4.77-12.4c3.26,0,5-2.19,5-6.56v-0.69a7.53,7.53,0,0,0-1.25-4.55,4.14,4.14,0,0,0-3.5-1.63,4.63,4.63,0,0,0-3.94,1.78,7.8,7.8,0,0,0-1.34,4.8,8.45,8.45,0,0,0,1.36,4.88A4.26,4.26,0,0,0,703,638.45Z" transform="translate(-49 -614.28)"/><path class="cls-1" d="M738.94,642.14a12,12,0,0,1-9.2-3.65q-3.4-3.65-3.4-10.08a13.56,13.56,0,0,1,3.55-9.8,12.31,12.31,0,0,1,9.3-3.69,13.82,13.82,0,0,1,7.86,2.15l-1.54,3.7a11.77,11.77,0,0,0-6.21-1.9,7,7,0,0,0-5.77,2.63,10.9,10.9,0,0,0-2.12,7.06q0,4.59,2.05,7.1a7.11,7.11,0,0,0,5.84,2.51,14.42,14.42,0,0,0,6.59-1.66l0.65,3.83A14.67,14.67,0,0,1,738.94,642.14Z" transform="translate(-49 -614.28)"/><path class="cls-1" d="M759,642.14a8.79,8.79,0,0,1-6.94-2.85,12.53,12.53,0,0,1,0-15.09,9.17,9.17,0,0,1,7.14-2.77,8.85,8.85,0,0,1,7,2.83,12.5,12.5,0,0,1,0,15.09A9.14,9.14,0,0,1,759,642.14Zm0.13-3.6a4.1,4.1,0,0,0,3.61-1.75,11.06,11.06,0,0,0,0-10.06,4.67,4.67,0,0,0-7.27,0,8.77,8.77,0,0,0-1.22,5,8.65,8.65,0,0,0,1.23,5A4.17,4.17,0,0,0,759.1,638.54Z" transform="translate(-49 -614.28)"/><path class="cls-1" d="M773,641.85v-20h3.36l0.54,2.56c0.24-.3.47-0.56,0.7-0.79a7.69,7.69,0,0,1,.92-0.79,6.21,6.21,0,0,1,1.25-.73,8.26,8.26,0,0,1,1.63-.49,10.23,10.23,0,0,1,2.07-.2,6.66,6.66,0,0,1,3.79,1,5.43,5.43,0,0,1,2,2.24,7.12,7.12,0,0,1,2.76-2.37,8.48,8.48,0,0,1,3.78-.83,5.72,5.72,0,0,1,4.82,1.93c1.07,1.29,1.4,3.2,1.4,5.73v12.78h-4V630.49a9.6,9.6,0,0,0-.82-4.2,2.61,2.61,0,0,0-2.54-1.29,4.1,4.1,0,0,0-4,2.49,6.31,6.31,0,0,0-.68,2.66v11.71h-5V630.27a8.73,8.73,0,0,0-.63-4,2.58,2.58,0,0,0-2.51-1.3,4.33,4.33,0,0,0-2.56.76,5.1,5.1,0,0,0-1.76,2,19.32,19.32,0,0,0-.54,4.37v9.72h-4Z" transform="translate(-49 -614.28)"/><path class="cls-1" d="M807,641.85v-20h3.88l0.54,2.56c0.24-.3.47-0.56,0.7-0.79a7.69,7.69,0,0,1,.92-0.79,6.21,6.21,0,0,1,1.25-.73,8.26,8.26,0,0,1,1.63-.49,10.23,10.23,0,0,1,2.07-.2,6.66,6.66,0,0,1,3.79,1,5.43,5.43,0,0,1,2,2.24,7.12,7.12,0,0,1,2.76-2.37,8.48,8.48,0,0,1,3.78-.83c2.28,0,4,.64,5.06,1.93a8.81,8.81,0,0,1,1.64,5.73v12.78h-5V630.49a10.36,10.36,0,0,0-.56-4.2A2.41,2.41,0,0,0,829,625a4.37,4.37,0,0,0-4.16,2.49c-0.34.74,0.13,1.62-.87,2.66v11.71h-4V630.27a8.33,8.33,0,0,0-.86-4,2.77,2.77,0,0,0-2.63-1.3,4.52,4.52,0,0,0-2.62.76,4.62,4.62,0,0,0-1.56,2,20.43,20.43,0,0,0-.33,4.37v9.72h-5Z" transform="translate(-49 -614.28)"/><path class="cls-1" d="M855.77,640.2a9.32,9.32,0,0,1-6.17,1.94,9.54,9.54,0,0,1-6.23-1.93,6.92,6.92,0,0,1-2.37-5.67V621.85h5v12.5a4.62,4.62,0,0,0,.85,3.22,3.78,3.78,0,0,0,2.91,1,4.32,4.32,0,0,0,3.11-1,4.66,4.66,0,0,0,1.12-3.22v-12.5h4v12.68C858,637,857.35,638.9,855.77,640.2Z" transform="translate(-49 -614.28)"/><path class="cls-1" d="M863,641.85v-20h3.4l0.52,2.54a9.38,9.38,0,0,1,6.74-3,7,7,0,0,1,5.4,2,8.68,8.68,0,0,1,1.93,5.8v12.65h-5V629.78a6.71,6.71,0,0,0-.86-3.6,3.06,3.06,0,0,0-2.77-1.19,5.32,5.32,0,0,0-2.83.79,5.25,5.25,0,0,0-2,2,17.91,17.91,0,0,0-.51,4.34v9.76h-4Z" transform="translate(-49 -614.28)"/><path class="cls-1" d="M885,618.85v-4h5v4h-5Zm0,23v-20h5v20h-5Z" transform="translate(-49 -614.28)"/><path class="cls-1" d="M903,642a10.15,10.15,0,0,1-3.37-.48,4.33,4.33,0,0,1-2.11-1.51,6.48,6.48,0,0,1-1.12-2.43,15.71,15.71,0,0,1-.36-3.46v-9.3h-3.17l0.18-2.6,3.4-.33,1.61-5.39,3,0v5.35h5v3h-5v9.39a6.08,6.08,0,0,0,.56,3.22,2.61,2.61,0,0,0,2.36,1,14.28,14.28,0,0,0,2.18-.18l0.12,3.4-0.45.08-0.78.14q-0.37.06-.95,0.12C903.65,642,903.29,642,903,642Z" transform="translate(-49 -614.28)"/><path class="cls-1" d="M910,618.85v-4h4v4h-4Zm0,23v-20h4v20h-4Z" transform="translate(-49 -614.28)"/><path class="cls-1" d="M928.48,642.14a9.88,9.88,0,0,1-7.45-2.76,10.49,10.49,0,0,1-2.67-7.61,10.87,10.87,0,0,1,2.51-7.53,8.79,8.79,0,0,1,6.85-2.82,8.05,8.05,0,0,1,6.37,2.57,9.92,9.92,0,0,1,2.27,6.81c0,0.21,0,.56,0,1s0,1,0,1H923.13a5.92,5.92,0,0,0,1.53,4.28,5.25,5.25,0,0,0,4,1.51,12.52,12.52,0,0,0,6.25-1.7l0.67,3.36A13.23,13.23,0,0,1,928.48,642.14Zm-5.26-12.29h8.67c0-2-.37-2.87-1.1-3.74a3.79,3.79,0,0,0-3.05-1.31,4.18,4.18,0,0,0-3.08,1.28A5.11,5.11,0,0,0,923.22,629.85Z" transform="translate(-49 -614.28)"/><path class="cls-1" d="M946.54,642.12a14.18,14.18,0,0,1-7-1.5l0.49-3.56a14.61,14.61,0,0,0,3,1.17,12.57,12.57,0,0,0,3.36.52,4.37,4.37,0,0,0,2.45-.59,2,2,0,0,0,.89-1.72,1.9,1.9,0,0,0-.82-1.63,15.33,15.33,0,0,0-3.13-1.48l-1-.38a10.59,10.59,0,0,1-4-2.38,5,5,0,0,1-1.21-3.55,4.85,4.85,0,0,1,2-4.16,9.06,9.06,0,0,1,5.46-1.45,14.81,14.81,0,0,1,6.67,1.43l-1.17,3.27a12.82,12.82,0,0,0-5.4-1.32,4.37,4.37,0,0,0-2.23.48,1.58,1.58,0,0,0-.8,1.45,1.63,1.63,0,0,0,.78,1.44,16.85,16.85,0,0,0,3,1.35l0.47,0.16,0.61,0.23a10.16,10.16,0,0,1,4,2.38,5.09,5.09,0,0,1,1.28,3.6,5.64,5.64,0,0,1-2,4.61A8.83,8.83,0,0,1,946.54,642.12Z" transform="translate(-49 -614.28)"/></svg>